<svg xmlns="http://www.w3.org/2000/svg" viewBox="0 0 900 620" role="img" aria-labelledby="title desc">
  <title id="title">Implante ortopédico interno</title>
  <desc id="desc">Render vectorial de prótesis interna con estética médica premium.</desc>
  <defs>
    <linearGradient id="bg" x1="0" y1="0" x2="1" y2="1">
      <stop offset="0" stop-color="#ffffff"/>
      <stop offset="1" stop-color="#e9f8f8"/>
    </linearGradient>
    <linearGradient id="metal" x1="0" y1="0" x2="1" y2="1">
      <stop offset="0" stop-color="#ffffff"/>
      <stop offset=".35" stop-color="#bcd7dc"/>
      <stop offset=".72" stop-color="#45b5c4"/>
      <stop offset="1" stop-color="#1693a5"/>
    </linearGradient>
    <filter id="shadow" x="-20%" y="-20%" width="140%" height="140%">
      <feDropShadow dx="0" dy="28" stdDeviation="22" flood-color="#1693a5" flood-opacity=".18"/>
    </filter>
  </defs>
  <rect width="900" height="620" rx="44" fill="url(#bg)"/>
  <circle cx="690" cy="122" r="190" fill="#7ececa" opacity=".16"/>
  <circle cx="234" cy="450" r="230" fill="#45b5c4" opacity=".10"/>
  <g fill="none" stroke="#1693a5" opacity=".18">
    <circle cx="450" cy="310" r="230"/>
    <circle cx="450" cy="310" r="160"/>
    <path d="M108 126h684M108 494h684"/>
  </g>
  <g filter="url(#shadow)">
    <path d="M422 88c50 0 91 41 91 91v259c0 50-41 91-91 91s-91-41-91-91V179c0-50 41-91 91-91Z" fill="url(#metal)"/>
    <path d="M486 284c92 18 152 83 152 164 0 62-50 112-112 112H414c-32 0-58-26-58-58V319c0-26 24-45 50-39l80 4Z" fill="#1693a5" opacity=".7"/>
    <circle cx="422" cy="245" r="78" fill="none" stroke="#ffffff" stroke-width="4" opacity=".72"/>
    <path d="M377 136h89M377 490h89" stroke="#ffffff" stroke-width="8" stroke-linecap="round" opacity=".58"/>
  </g>
</svg>
