<svg xmlns="http://www.w3.org/2000/svg" viewBox="0 0 900 620" role="img" aria-labelledby="title desc">
  <title id="title">Placa quirúrgica y tornillos</title>
  <desc id="desc">Placa de osteosíntesis con tornillos para fijación interna.</desc>
  <defs>
    <linearGradient id="bg" x1="0" y1="0" x2="1" y2="1">
      <stop offset="0" stop-color="#ffffff"/>
      <stop offset="1" stop-color="#effafa"/>
    </linearGradient>
    <linearGradient id="plate" x1="0" y1="0" x2="1" y2="1">
      <stop offset="0" stop-color="#f8ffff"/>
      <stop offset=".52" stop-color="#7ececa"/>
      <stop offset="1" stop-color="#1693a5"/>
    </linearGradient>
    <filter id="shadow" x="-20%" y="-20%" width="140%" height="140%">
      <feDropShadow dx="0" dy="24" stdDeviation="18" flood-color="#222222" flood-opacity=".14"/>
    </filter>
  </defs>
  <rect width="900" height="620" rx="44" fill="url(#bg)"/>
  <path d="M94 465C274 332 520 505 810 134" stroke="#45b5c4" stroke-width="2" opacity=".18" fill="none"/>
  <g filter="url(#shadow)" transform="rotate(-18 450 310)">
    <rect x="198" y="260" width="504" height="100" rx="50" fill="url(#plate)"/>
    <g fill="#ffffff" stroke="#1693a5" stroke-width="8">
      <circle cx="274" cy="310" r="27"/>
      <circle cx="362" cy="310" r="27"/>
      <circle cx="450" cy="310" r="27"/>
      <circle cx="538" cy="310" r="27"/>
      <circle cx="626" cy="310" r="27"/>
    </g>
    <g stroke="#ffffff" stroke-width="8" stroke-linecap="round" opacity=".76">
      <path d="M250 246l-28-54"/>
      <path d="M366 250l-12-68"/>
      <path d="M478 250l16-70"/>
      <path d="M594 250l36-62"/>
    </g>
  </g>
  <g fill="#1693a5" opacity=".2">
    <circle cx="132" cy="132" r="42"/>
    <circle cx="780" cy="500" r="64"/>
  </g>
</svg>
