<?xml version="1.0" encoding="UTF-8"?>
<svg id="Capa_1" xmlns="http://www.w3.org/2000/svg" version="1.1" xmlns:xlink="http://www.w3.org/1999/xlink" viewBox="0 0 2191.67 1580">
  <!-- Generator: Adobe Illustrator 29.5.1, SVG Export Plug-In . SVG Version: 2.1.0 Build 141)  -->
  <defs>
    <style>
      .st0 {
        font-family: CopperplateGothic-Bold, 'Copperplate Gothic Bold';
        font-size: 96.56px;
      }

      .st0, .st1 {
        font-weight: 700;
      }

      .st2 {
        fill: #519acd;
      }

      .st1 {
        fill: #0060a2;
        font-family: TwCenMT-Bold, 'Tw Cen MT';
        font-size: 48px;
      }

      .st3 {
        fill: none;
        stroke: url(#Degradado_sin_nombre_79);
        stroke-miterlimit: 10;
        stroke-width: 2.06px;
      }
    </style>
    <linearGradient id="Degradado_sin_nombre_79" data-name="Degradado sin nombre 79" x1="1110.98" y1="848.14" x2="1113.07" y2="848.14" gradientTransform="translate(232.4 77.89) rotate(-.08) scale(.79 .84) skewX(-.16)" gradientUnits="userSpaceOnUse">
      <stop offset="0" stop-color="#00486a"/>
      <stop offset=".97" stop-color="#00486a"/>
    </linearGradient>
  </defs>
  <text class="st1" transform="translate(159.92 192.56)"><tspan x="0" y="0">Logotipo principal</tspan></text>
  <g>
    <line class="st3" x1="1115.15" y1="509.2" x2="1114.42" y2="1070.8"/>
    <text class="st0" transform="translate(1273.85 706.72) scale(.82 1)"><tspan class="st2" x="0" y="0">B</tspan><tspan x="77.84" y="0">ODY </tspan><tspan class="st2" x="0" y="115.87">E</tspan><tspan x="73.36" y="115.87">DGE </tspan><tspan class="st2" x="0" y="231.74">T</tspan><tspan x="65.11" y="231.74">ECHNOLOGIES</tspan></text>
    <path class="st2" d="M614.88,730.89c.88,3.35,2.89,11.03,4.35,20.5.36,2.29.52,3.64.63,5.07.08,1.04.41,5.16,0,8.89,0,0-.64,5.83-4,11.99-6.07,11.11-25.08,18.4-45.08,31.77-11.86,7.93-14.06,12.04-15.92,14.74-2.21,3.2-11.89,18.08-10.69,50.34,1.29,34.61,13.34,41.95,15.23,66.94,1.2,15.9-1.62,40.1-23.36,72.03-1.26,1.35-2.67,2.71-3.05,2.35-.68-.66,2.52-6.47,5.71-13.17.34-.71,5.25-11.11,8.1-19.49,6.09-17.93,5.35-34.51,5-41.17-.34-6.32-1.11-10.88-1.67-13.62-1.01-5.02-2.11-10.5-5.24-16.47-1.27-2.42-4.44-7.9-9.32-11.88-7.77-6.32-16.32-6.03-22.77-5.83-14.09.42-28.28-3.78-42.26-2.15-10.35,2.92,1.99,12.58,6.47,14.74,10.85,6.37,22.95,9.38,34.86,12.32,3.1.78,15.1,3.78,10.45,9.24-23.75,11.32-73.84-21.33-86.66-46.06-3.13-6.14,1.64-10.26,6.05-9.37,16.81.73,99.36,26.71,89.94-4.28-12.68-25.43-51.24-32.86-73.58-40.81-38.23-12.29-69.41-42.64-102.95-66.23-10.54-8.07-20.05-7.25-11.67,9.03,24.33,49.84,71.08,61.36,115.41,73.64,2.94,1.2,6.33,2.79,9.14,4.89,4.06,2.74,6.37,8.3.26,7.23-7.93-1.62-16.64-6.89-24.74-7.84-53.02-8.29-108.89-42.01-120.74-106.18-3.54-18.54,5.92-18.01,15.25-8.98,49.62,43.88,107.34,76.35,167.75,94.31,5.42,1.74,15.25,4.6,17.89-3.12,2.37-7.54-1.14-15.9-5.16-22.07-3.55-5.21-8.23-9.06-13.28-12.04-63.17-30.36-117.63-81.58-166.52-136.97-3.83-5.15-12.47-10.19-10.98.88,4.66,22.58,33.43,51.04,43.96,67.84,6.92,10.82-1.75,10.88-7.86,4.68-25.54-25-61.5-65.08-53.57-109.1.9-4.47,3.03-9.78,6.89-11.27,3.41-1.47,7.55.48,10.19,2.84,38.81,39.45,156.65,180.88,193.41,156.51,3.42-2.74.39-7.53-1.67-11.02-47.5-58.17-91.45-120.54-137.37-180.64-4.34-5.29-10.62-7.2-10.55,1.99.66,9.89,5.06,18.34,9.22,26.76,2.77,5.77,6.12,11.08,7.78,17.48,1.42,6.28-2.66,7.59-6.81,3.7-20.47-23.25-43.75-84.21-29.08-111.49,2.22-4.14,6.44-3.75,9.66-.77,71.68,85.69,138.39,185.46,201.73,277.32,7.51,7.03,16.86,5.75,24.41-.7,12.16-10.71,20.7-30.02,17.62-48.32-2.79-13.14-10.84-24.17-12.28-37.84-3.16-20.69,1.18-44.29,14.5-58.85,15.12-15.35,39.8-18.03,55.57-4.05,8.85,8.86,6.86,23.05,15.92,33.85,7.89,10.35,18.47,6.36,12.72,15.07-2.14,4.06-4.42,6.29-6.06,11.29-1.53,4.53-.68,10.37,1.03,14.48,2.18,5.76-.43,14.79-6.5,15.32-12.49.81-21.18,6.23-25.49,20.84-4.87,14.88-1.06,37.76,12.63,43.66,7.27,2.54,17.13-3.37,25.04-7.03,15.68-8.22,31.31-14.64,47.06-22.45,54.79-29.96,122.52-57.89,191.42-93.05,8.98-3.2,31.19-21.87,28.35,2.43-7.53,35.38-33.76,66.22-61.34,82.24-3.76,2.69-11.47,2.25-6.56-4.42,2.78-4.99,42.52-35.65,30.21-43.9-5.74-1.94-19.96,3.81-29.31,7.95-34.64,15.71-71.05,32.66-95.35,44.34-57.19,29.43-106.49,48.61-86.95,69.12,3.37,3.89,5.71,4.43,9.85,5.38,9.41,1.62,20.01-.27,29.39-2.56,52.87-19.5,169.07-47.8,191.43-55.67,16.51-6.39,16.43,13.91,10.73,26.86-6.53,34.65-117.8,89.89-82.11,55.34l.03-.02c9.16-5.36,19.26-12.02,29.84-20.31,9.9-7.76,18.52-15.62,25.92-23.06,7.64-14.31-26.67-4.9-72.65,4.04-32.72,7.27-66.2,13.82-101.06,23.33-10.03,3.48-37.59,8.52-39.59,19.81-2.82,8.38.73,19.01,8.57,20.6,56.2,19.5,116.62,17.76,174.21,5.73,3.13-.79,8.52-.8,8.58,3.97.07,3.24-2.17,7.54-4.02,10.55-38.83,63.49-92.59,53.98-149.8,31.63-7.91-2.59-9.29-7.67.34-7.95,13.23.07,25.62,5.98,38.21,10.07,30.17,9.68,67.75,7.89,88.27-21.48,1.32-2.24,1.94-4.8.99-6.59-1.26-2.64-5.54-3.06-8.55-2.73-40.9,5.92-82.47,14.49-122.63,1.56-14.69-4.17-29.98-9.16-45.09-5.11-16.05,4.19-28.33,20.39-8.77,32.68,36.31,26,77.74,39.81,119.53,45.47,40.55,4.15-48.22,72.46-106.5,14.53-9.4-8.5-20.03-14.68-29.88-22.37-6.77-6.9,2.34-6.07,6.11-3.52,28.62,15.61,75.96,61.83,113.96,29.91,3.81-4.47-.12-8.93-4.28-9.91-39.52-8.03-78.88-17.59-114.82-39.3-5.62-3.26-11.96-6.76-18.27-5.35-18.94,5.23-26.04,33.6-34.02,52-15.74,42.28-46.36,78.92-87.37,72.67-.9-.14-6.64-2.83-6.42-5,.23-2.38,7.47-2.65,13.28-3.73,24.34-4.53,41.07-29.87,43.79-34.07,4.13-6.37,10.37-17.79,13.8-34.64-12.58,16.49-43.4,55.09-60.44,55.08-1.37,0-6.99,0-7.32-1.84-.4-2.27,7.66-5.34,14.69-10.08,0,0,10.56-7.13,21.65-24.7,15.19-24.06,19.58-71.59,6.18-106.47-4.27-12.76-7.23-17.04-9.52-23.28-1.54-4.2-5.01-13.65-2.85-24.42,1.3-6.54,4.21-11.17,5.24-12.78,3.37-5.27,7.08-8.33,9.43-9.78,12.39-7.62,18.05-8.26,27.21-13.22,5.49-2.98,21.25-11.8,30.42-31,.31-.64.55-1.16.88-1.93,7.02-16.45,2.58-34.1.59-42.03-1.93-7.69-3.38-9.42-6.46-22.01-1.01-4.12-1.75-7.12-2.36-10.64-1.26-7.26-3.31-19.12-.22-31.5,3.42-13.71,11.66-22.06,15.91-25.74,1.43-1.35,3.74-4.41,2.69-5.54-1.67-1.57-3.83-1.02-6.82-.74-9.67.91-16.22,7.21-16.53,7.49-8.46,7.51-10.55,17.64-12.26,25.94-1.43,6.93-2.95,19.08.44,34.34"/>
  </g>
</svg>