<?xml version="1.0" encoding="UTF-8"?>
<svg id="Capa_1" xmlns="http://www.w3.org/2000/svg" version="1.1" viewBox="0 0 2191.67 1580">
  <!-- Generator: Adobe Illustrator 29.5.1, SVG Export Plug-In . SVG Version: 2.1.0 Build 141)  -->
  <defs>
    <style>
      .st0 {
        font-family: CopperplateGothic-Bold, 'Copperplate Gothic Bold';
        font-size: 62.34px;
        font-weight: 700;
      }

      .st1 {
        fill: #fff;
      }

      .st2 {
        fill: #023d54;
      }

      .st3 {
        fill: #519acd;
      }

      .st4 {
        fill: none;
      }

      .st5 {
        letter-spacing: 0em;
      }

      .st6 {
        fill: #16877c;
      }

      .st7 {
        fill: #6bb29c;
      }
    </style>
  </defs>
  <path class="st4" d="M898.42,52.55c2.6-2.01,6.31-5.13,10.2-9.46,2.27-2.53,9.78-11.22,15.41-25.49,4.03-10.23,4.48-16.68,5.3-16.6.95.09,1.42,8.84-.88,48.05"/>
  <line class="st4" x1="537.97" y1="289.49" x2="1056.33" y2="274.64"/>
  <rect class="st2" x="40.8" y="30.11" width="1043.66" height="758.24" rx="52.53" ry="52.53"/>
  <rect class="st3" x="40.8" y="823.37" width="1043.66" height="729.82" rx="52.53" ry="52.53"/>
  <rect class="st7" x="1107.21" y="26.81" width="1043.66" height="758.24" rx="52.53" ry="52.53"/>
  <rect class="st6" x="1107.21" y="823.37" width="1043.66" height="726.52" rx="52.53" ry="52.53"/>
  <g>
    <rect class="st1" x="369.73" y="407.39" width="362.59" height="1.12" transform="translate(142.45 958.51) rotate(-89.94)"/>
    <text class="st0" transform="translate(637.23 354.18) scale(.68 1)"><tspan class="st1" x="0" y="0">BODY</tspan><tspan class="st5" x="200.3" y="0"> </tspan><tspan class="st1" x="0" y="74.81">EDGE</tspan><tspan class="st5" x="200.48" y="74.81"> </tspan><tspan class="st1"><tspan x="0" y="149.62">TECHNOLOGIES</tspan></tspan></text>
    <path class="st1" d="M280.09,369.78c.47,2.16,1.57,7.12,2.36,13.24.19,1.48.28,2.35.34,3.28.04.67.22,3.33,0,5.74,0,0-.34,3.76-2.17,7.74-3.29,7.18-13.59,11.88-24.43,20.52-6.43,5.12-7.62,7.77-8.63,9.52-1.2,2.07-6.44,11.67-5.79,32.5.7,22.35,7.23,27.08,8.25,43.22.65,10.26-.88,25.89-12.66,46.51-.68.87-1.45,1.75-1.65,1.52-.37-.42,1.37-4.18,3.09-8.5.18-.46,2.85-7.18,4.39-12.58,3.3-11.57,2.9-22.28,2.71-26.58-.18-4.08-.6-7.02-.9-8.8-.55-3.24-1.14-6.78-2.84-10.63-.69-1.57-2.4-5.1-5.05-7.67-4.21-4.08-8.84-3.89-12.34-3.77-7.64.27-15.32-2.44-22.9-1.39-5.61,1.89,1.08,8.12,3.51,9.52,5.88,4.11,12.44,6.05,18.9,7.95,1.68.5,8.18,2.44,5.66,5.97-12.87,7.31-40.02-13.77-46.97-29.74-1.7-3.97.89-6.62,3.28-6.05,9.11.47,53.85,17.25,48.75-2.77-6.87-16.42-27.77-21.22-39.88-26.35-20.72-7.93-37.62-27.53-55.8-42.76-5.71-5.21-10.86-4.68-6.32,5.83,13.18,32.18,38.52,39.62,62.55,47.55,1.59.78,3.43,1.8,4.95,3.15,2.2,1.77,3.45,5.36.14,4.67-4.3-1.04-9.02-4.45-13.41-5.06-28.74-5.35-59.02-27.12-65.44-68.55-1.92-11.97,3.21-11.63,8.26-5.8,26.9,28.33,58.18,49.29,90.92,60.89,2.94,1.12,8.26,2.97,9.69-2.01,1.28-4.87-.62-10.26-2.8-14.25-1.92-3.37-4.46-5.85-7.2-7.78-34.24-19.6-63.75-52.67-90.25-88.44-2.07-3.32-6.76-6.58-5.95.57,2.53,14.58,18.12,32.95,23.83,43.8,3.75,6.99-.95,7.02-4.26,3.02-13.84-16.14-33.33-42.02-29.04-70.44.49-2.89,1.64-6.31,3.73-7.28,1.85-.95,4.09.31,5.52,1.83,21.04,25.47,84.9,116.78,104.82,101.05,1.85-1.77.21-4.86-.91-7.12-25.74-37.55-49.56-77.83-74.45-116.63-2.35-3.42-5.76-4.65-5.72,1.29.36,6.39,2.74,11.84,5,17.28,1.5,3.72,3.32,7.15,4.22,11.29.77,4.05-1.44,4.9-3.69,2.39-11.1-15.01-23.71-54.37-15.76-71.99,1.2-2.68,3.49-2.42,5.23-.5,38.85,55.32,75.01,119.74,109.33,179.05,4.07,4.54,9.14,3.71,13.23-.45,6.59-6.92,11.22-19.38,9.55-31.2-1.51-8.49-5.87-15.61-6.65-24.43-1.71-13.36.64-28.6,7.86-38,8.2-9.91,21.57-11.64,30.12-2.61,4.8,5.72,3.72,14.88,8.63,21.86,4.28,6.68,10.01,4.11,6.89,9.73-1.16,2.62-2.4,4.06-3.28,7.29-.83,2.92-.37,6.7.56,9.35,1.18,3.72-.23,9.55-3.52,9.89-6.77.52-11.48,4.02-13.81,13.45-2.64,9.61-.58,24.38,6.85,28.19,3.94,1.64,9.28-2.18,13.57-4.54,8.5-5.31,16.97-9.45,25.51-14.49,29.69-19.34,66.4-37.38,103.75-60.08,4.87-2.07,16.9-14.12,15.36,1.57-4.08,22.84-18.3,42.75-33.25,53.1-2.04,1.73-6.22,1.46-3.56-2.85,1.51-3.22,23.05-23.01,16.37-28.35-3.11-1.26-10.82,2.46-15.89,5.13-18.77,10.14-38.51,21.09-51.68,28.63-30.99,19-57.71,31.39-47.13,44.63,1.83,2.51,3.09,2.86,5.34,3.48,5.1,1.04,10.85-.18,15.93-1.66,28.66-12.59,91.63-30.86,103.75-35.94,8.95-4.12,8.91,8.98,5.81,17.34-3.54,22.37-63.85,58.03-44.5,35.73h.01c4.97-3.47,10.44-7.77,16.17-13.13,5.37-5.01,10.04-10.09,14.05-14.89,4.14-9.24-14.45-3.17-39.37,2.61-17.73,4.7-35.88,8.92-54.77,15.06-5.43,2.24-20.37,5.5-21.46,12.79-1.53,5.41.4,12.27,4.64,13.3,30.46,12.59,63.21,11.46,94.42,3.7,1.7-.51,4.62-.52,4.65,2.57.04,2.09-1.18,4.86-2.18,6.81-21.05,40.99-50.18,34.85-81.19,20.42-4.29-1.67-5.03-4.95.18-5.13,7.17.04,13.89,3.86,20.71,6.5,16.35,6.25,36.72,5.1,47.84-13.87.72-1.44,1.05-3.1.54-4.25-.68-1.7-3-1.98-4.63-1.77-22.17,3.82-44.7,9.35-66.46,1.01-7.96-2.69-16.25-5.91-24.44-3.3-8.7,2.71-15.36,13.16-4.75,21.1,19.68,16.78,42.13,25.7,64.78,29.36,21.98,2.68-26.14,46.78-57.72,9.38-5.09-5.49-10.86-9.48-16.19-14.44-3.67-4.45,1.27-3.92,3.31-2.27,15.51,10.08,41.17,39.92,61.76,19.31,2.06-2.89-.07-5.77-2.32-6.4-21.42-5.19-42.75-11.36-62.23-25.37-3.05-2.1-6.48-4.37-9.9-3.45-10.27,3.38-14.11,21.69-18.44,33.58-8.53,27.3-25.13,50.95-47.35,46.92-.49-.09-3.6-1.83-3.48-3.23.13-1.53,4.05-1.71,7.2-2.41,13.19-2.92,22.26-19.28,23.73-22,2.24-4.11,5.62-11.49,7.48-22.37-6.82,10.65-23.52,35.57-32.76,35.56-.74,0-3.79,0-3.97-1.19-.22-1.47,4.15-3.45,7.96-6.51,0,0,5.72-4.6,11.74-15.95,8.23-15.54,10.61-46.22,3.35-68.74-2.31-8.24-3.92-11-5.16-15.03-.84-2.71-2.71-8.81-1.55-15.77.71-4.22,2.28-7.21,2.84-8.25,1.83-3.4,3.83-5.38,5.11-6.31,6.72-4.92,9.78-5.33,14.75-8.53,2.98-1.92,11.52-7.62,16.49-20.02.17-.41.3-.75.48-1.24,3.8-10.62,1.4-22.01.32-27.13-1.05-4.97-1.83-6.08-3.5-14.21-.55-2.66-.95-4.6-1.28-6.87-.68-4.69-1.8-12.34-.12-20.34,1.85-8.85,6.32-14.24,8.62-16.62.78-.87,2.03-2.84,1.46-3.58-.9-1.01-2.07-.66-3.7-.48-5.24.59-8.79,4.65-8.96,4.83-4.59,4.85-5.72,11.39-6.65,16.75-.77,4.47-1.6,12.32.24,22.17"/>
  </g>
  <g>
    <rect class="st1" x="383.49" y="1175.11" width="362.59" height="1.12" transform="translate(-611.52 1739.12) rotate(-89.94)"/>
    <text class="st0" transform="translate(650.99 1121.89) scale(.68 1)"><tspan class="st1" x="0" y="0">BODY</tspan><tspan class="st5" x="200.3" y="0"> </tspan><tspan class="st1" x="0" y="74.81">EDGE</tspan><tspan class="st5" x="200.48" y="74.81"> </tspan><tspan class="st1"><tspan x="0" y="149.62">TECHNOLOGIES</tspan></tspan></text>
    <path class="st1" d="M293.85,1137.5c.47,2.16,1.57,7.12,2.36,13.24.19,1.48.28,2.35.34,3.28.04.67.22,3.33,0,5.74,0,0-.34,3.76-2.17,7.74-3.29,7.18-13.59,11.88-24.43,20.52-6.43,5.12-7.62,7.77-8.63,9.52-1.2,2.07-6.44,11.67-5.79,32.5.7,22.35,7.23,27.08,8.25,43.22.65,10.26-.88,25.89-12.66,46.51-.68.87-1.45,1.75-1.65,1.52-.37-.42,1.37-4.18,3.09-8.5.18-.46,2.85-7.18,4.39-12.58,3.3-11.57,2.9-22.28,2.71-26.58-.18-4.08-.6-7.02-.9-8.8-.55-3.24-1.14-6.78-2.84-10.63-.69-1.57-2.4-5.1-5.05-7.67-4.21-4.08-8.84-3.89-12.34-3.77-7.64.27-15.32-2.44-22.9-1.39-5.61,1.89,1.08,8.12,3.51,9.52,5.88,4.11,12.44,6.05,18.9,7.95,1.68.5,8.18,2.44,5.66,5.97-12.87,7.31-40.02-13.77-46.97-29.74-1.7-3.97.89-6.62,3.28-6.05,9.11.47,53.85,17.25,48.75-2.77-6.87-16.42-27.77-21.22-39.88-26.35-20.72-7.93-37.62-27.53-55.8-42.76-5.71-5.21-10.86-4.68-6.32,5.83,13.18,32.18,38.52,39.62,62.55,47.55,1.59.78,3.43,1.8,4.95,3.15,2.2,1.77,3.45,5.36.14,4.67-4.3-1.04-9.02-4.45-13.41-5.06-28.74-5.35-59.02-27.12-65.44-68.55-1.92-11.97,3.21-11.63,8.26-5.8,26.9,28.33,58.18,49.29,90.92,60.89,2.94,1.12,8.26,2.97,9.69-2.01,1.28-4.87-.62-10.26-2.8-14.25-1.92-3.37-4.46-5.85-7.2-7.78-34.24-19.6-63.75-52.67-90.25-88.44-2.07-3.32-6.76-6.58-5.95.57,2.53,14.58,18.12,32.95,23.83,43.8,3.75,6.99-.95,7.02-4.26,3.02-13.84-16.14-33.33-42.02-29.04-70.44.49-2.89,1.64-6.31,3.73-7.28,1.85-.95,4.09.31,5.52,1.83,21.04,25.47,84.9,116.78,104.82,101.05,1.85-1.77.21-4.86-.91-7.12-25.74-37.55-49.56-77.83-74.45-116.63-2.35-3.42-5.76-4.65-5.72,1.29.36,6.39,2.74,11.84,5,17.28,1.5,3.72,3.32,7.15,4.22,11.29.77,4.05-1.44,4.9-3.69,2.39-11.1-15.01-23.71-54.37-15.76-71.99,1.2-2.68,3.49-2.42,5.23-.5,38.85,55.32,75.01,119.74,109.33,179.05,4.07,4.54,9.14,3.71,13.23-.45,6.59-6.92,11.22-19.38,9.55-31.2-1.51-8.49-5.87-15.61-6.65-24.43-1.71-13.36.64-28.6,7.86-38,8.2-9.91,21.57-11.64,30.12-2.61,4.8,5.72,3.72,14.88,8.63,21.86,4.28,6.68,10.01,4.11,6.89,9.73-1.16,2.62-2.4,4.06-3.28,7.29-.83,2.92-.37,6.7.56,9.35,1.18,3.72-.23,9.55-3.52,9.89-6.77.52-11.48,4.02-13.81,13.45-2.64,9.61-.58,24.38,6.85,28.19,3.94,1.64,9.28-2.18,13.57-4.54,8.5-5.31,16.97-9.45,25.51-14.49,29.69-19.34,66.4-37.38,103.75-60.08,4.87-2.07,16.9-14.12,15.36,1.57-4.08,22.84-18.3,42.75-33.25,53.1-2.04,1.73-6.22,1.46-3.56-2.85,1.51-3.22,23.05-23.01,16.37-28.35-3.11-1.26-10.82,2.46-15.89,5.13-18.77,10.14-38.51,21.09-51.68,28.63-30.99,19-57.71,31.39-47.13,44.63,1.83,2.51,3.09,2.86,5.34,3.48,5.1,1.04,10.85-.18,15.93-1.66,28.66-12.59,91.63-30.86,103.75-35.94,8.95-4.12,8.91,8.98,5.81,17.34-3.54,22.37-63.85,58.03-44.5,35.73h.01c4.97-3.47,10.44-7.77,16.17-13.13,5.37-5.01,10.04-10.09,14.05-14.89,4.14-9.24-14.45-3.17-39.37,2.61-17.73,4.7-35.88,8.92-54.77,15.06-5.43,2.24-20.37,5.5-21.46,12.79-1.53,5.41.4,12.27,4.64,13.3,30.46,12.59,63.21,11.46,94.42,3.7,1.7-.51,4.62-.52,4.65,2.57.04,2.09-1.18,4.86-2.18,6.81-21.05,40.99-50.18,34.85-81.19,20.42-4.29-1.67-5.03-4.95.18-5.13,7.17.04,13.89,3.86,20.71,6.5,16.35,6.25,36.72,5.1,47.84-13.87.72-1.44,1.05-3.1.54-4.25-.68-1.7-3-1.98-4.63-1.77-22.17,3.82-44.7,9.35-66.46,1.01-7.96-2.69-16.25-5.91-24.44-3.3-8.7,2.71-15.36,13.16-4.75,21.1,19.68,16.78,42.13,25.7,64.78,29.36,21.98,2.68-26.14,46.78-57.72,9.38-5.09-5.49-10.86-9.48-16.19-14.44-3.67-4.45,1.27-3.92,3.31-2.27,15.51,10.08,41.17,39.92,61.76,19.31,2.06-2.89-.07-5.77-2.32-6.4-21.42-5.19-42.75-11.36-62.23-25.37-3.05-2.1-6.48-4.37-9.9-3.45-10.27,3.38-14.11,21.69-18.44,33.58-8.53,27.3-25.13,50.95-47.35,46.92-.49-.09-3.6-1.83-3.48-3.23.13-1.53,4.05-1.71,7.2-2.41,13.19-2.92,22.26-19.28,23.73-22,2.24-4.11,5.62-11.49,7.48-22.37-6.82,10.65-23.52,35.57-32.76,35.56-.74,0-3.79,0-3.97-1.19-.22-1.47,4.15-3.45,7.96-6.51,0,0,5.72-4.6,11.74-15.95,8.23-15.54,10.61-46.22,3.35-68.74-2.31-8.24-3.92-11-5.16-15.03-.84-2.71-2.71-8.81-1.55-15.77.71-4.22,2.28-7.21,2.84-8.25,1.83-3.4,3.83-5.38,5.11-6.31,6.72-4.92,9.78-5.33,14.75-8.53,2.98-1.92,11.52-7.62,16.49-20.02.17-.41.3-.75.48-1.24,3.8-10.62,1.4-22.01.32-27.13-1.05-4.97-1.83-6.08-3.5-14.21-.55-2.66-.95-4.6-1.28-6.87-.68-4.69-1.8-12.34-.12-20.34,1.85-8.85,6.32-14.24,8.62-16.62.78-.87,2.03-2.84,1.46-3.58-.9-1.01-2.07-.66-3.7-.48-5.24.59-8.79,4.65-8.96,4.83-4.59,4.85-5.72,11.39-6.65,16.75-.77,4.47-1.6,12.32.24,22.17"/>
  </g>
  <g>
    <rect class="st1" x="1462.38" y="405.37" width="362.59" height="1.12" transform="translate(1235.89 2049.15) rotate(-89.94)"/>
    <text class="st0" transform="translate(1729.88 352.16) scale(.68 1)"><tspan class="st1" x="0" y="0">BODY</tspan><tspan class="st5" x="200.3" y="0"> </tspan><tspan class="st1" x="0" y="74.81">EDGE</tspan><tspan class="st5" x="200.48" y="74.81"> </tspan><tspan class="st1"><tspan x="0" y="149.62">TECHNOLOGIES</tspan></tspan></text>
    <path class="st1" d="M1372.74,367.77c.47,2.16,1.57,7.12,2.36,13.24.19,1.48.28,2.35.34,3.28.04.67.22,3.33,0,5.74,0,0-.34,3.76-2.17,7.74-3.29,7.18-13.59,11.88-24.43,20.52-6.43,5.12-7.62,7.77-8.63,9.52-1.2,2.07-6.44,11.67-5.79,32.5.7,22.35,7.23,27.08,8.25,43.22.65,10.26-.88,25.89-12.66,46.51-.68.87-1.45,1.75-1.65,1.52-.37-.42,1.37-4.18,3.09-8.5.18-.46,2.85-7.18,4.39-12.58,3.3-11.57,2.9-22.28,2.71-26.58-.18-4.08-.6-7.02-.9-8.8-.55-3.24-1.14-6.78-2.84-10.63-.69-1.57-2.4-5.1-5.05-7.67-4.21-4.08-8.84-3.89-12.34-3.77-7.64.27-15.32-2.44-22.9-1.39-5.61,1.89,1.08,8.12,3.51,9.52,5.88,4.11,12.44,6.05,18.9,7.95,1.68.5,8.18,2.44,5.66,5.97-12.87,7.31-40.02-13.77-46.97-29.74-1.7-3.97.89-6.62,3.28-6.05,9.11.47,53.85,17.25,48.75-2.77-6.87-16.42-27.77-21.22-39.88-26.35-20.72-7.93-37.62-27.53-55.8-42.76-5.71-5.21-10.86-4.68-6.32,5.83,13.18,32.18,38.52,39.62,62.55,47.55,1.59.78,3.43,1.8,4.95,3.15,2.2,1.77,3.45,5.36.14,4.67-4.3-1.04-9.02-4.45-13.41-5.06-28.74-5.35-59.02-27.12-65.44-68.55-1.92-11.97,3.21-11.63,8.26-5.8,26.9,28.33,58.18,49.29,90.92,60.89,2.94,1.12,8.26,2.97,9.69-2.01,1.28-4.87-.62-10.26-2.8-14.25-1.92-3.37-4.46-5.85-7.2-7.78-34.24-19.6-63.75-52.67-90.25-88.44-2.07-3.32-6.76-6.58-5.95.57,2.53,14.58,18.12,32.95,23.83,43.8,3.75,6.99-.95,7.02-4.26,3.02-13.84-16.14-33.33-42.02-29.04-70.44.49-2.89,1.64-6.31,3.73-7.28,1.85-.95,4.09.31,5.52,1.83,21.04,25.47,84.9,116.78,104.82,101.05,1.85-1.77.21-4.86-.91-7.12-25.74-37.55-49.56-77.83-74.45-116.63-2.35-3.42-5.76-4.65-5.72,1.29.36,6.39,2.74,11.84,5,17.28,1.5,3.72,3.32,7.15,4.22,11.29.77,4.05-1.44,4.9-3.69,2.39-11.1-15.01-23.71-54.37-15.76-71.99,1.2-2.68,3.49-2.42,5.23-.5,38.85,55.32,75.01,119.74,109.33,179.05,4.07,4.54,9.14,3.71,13.23-.45,6.59-6.92,11.22-19.38,9.55-31.2-1.51-8.49-5.87-15.61-6.65-24.43-1.71-13.36.64-28.6,7.86-38,8.2-9.91,21.57-11.64,30.12-2.61,4.8,5.72,3.72,14.88,8.63,21.86,4.28,6.68,10.01,4.11,6.89,9.73-1.16,2.62-2.4,4.06-3.28,7.29-.83,2.92-.37,6.7.56,9.35,1.18,3.72-.23,9.55-3.52,9.89-6.77.52-11.48,4.02-13.81,13.45-2.64,9.61-.58,24.38,6.85,28.19,3.94,1.64,9.28-2.18,13.57-4.54,8.5-5.31,16.97-9.45,25.51-14.49,29.69-19.34,66.4-37.38,103.75-60.08,4.87-2.07,16.9-14.12,15.36,1.57-4.08,22.84-18.3,42.75-33.25,53.1-2.04,1.73-6.22,1.46-3.56-2.85,1.51-3.22,23.05-23.01,16.37-28.35-3.11-1.26-10.82,2.46-15.89,5.13-18.77,10.14-38.51,21.09-51.68,28.63-30.99,19-57.71,31.39-47.13,44.63,1.83,2.51,3.09,2.86,5.34,3.48,5.1,1.04,10.85-.18,15.93-1.66,28.66-12.59,91.63-30.86,103.75-35.94,8.95-4.12,8.91,8.98,5.81,17.34-3.54,22.37-63.85,58.03-44.5,35.73h.01c4.97-3.47,10.44-7.77,16.17-13.13,5.37-5.01,10.04-10.09,14.05-14.89,4.14-9.24-14.45-3.17-39.37,2.61-17.73,4.7-35.88,8.92-54.77,15.06-5.43,2.24-20.37,5.5-21.46,12.79-1.53,5.41.4,12.27,4.64,13.3,30.46,12.59,63.21,11.46,94.42,3.7,1.7-.51,4.62-.52,4.65,2.57.04,2.09-1.18,4.86-2.18,6.81-21.05,40.99-50.18,34.85-81.19,20.42-4.29-1.67-5.03-4.95.18-5.13,7.17.04,13.89,3.86,20.71,6.5,16.35,6.25,36.72,5.1,47.84-13.87.72-1.44,1.05-3.1.54-4.25-.68-1.7-3-1.98-4.63-1.77-22.17,3.82-44.7,9.35-66.46,1.01-7.96-2.69-16.25-5.91-24.44-3.3-8.7,2.71-15.36,13.16-4.75,21.1,19.68,16.78,42.13,25.7,64.78,29.36,21.98,2.68-26.14,46.78-57.72,9.38-5.09-5.49-10.86-9.48-16.19-14.44-3.67-4.45,1.27-3.92,3.31-2.27,15.51,10.08,41.17,39.92,61.76,19.31,2.06-2.89-.07-5.77-2.32-6.4-21.42-5.19-42.75-11.36-62.23-25.37-3.05-2.1-6.48-4.37-9.9-3.45-10.27,3.38-14.11,21.69-18.44,33.58-8.53,27.3-25.13,50.95-47.35,46.92-.49-.09-3.6-1.83-3.48-3.23.13-1.53,4.05-1.71,7.2-2.41,13.19-2.92,22.26-19.28,23.73-22,2.24-4.11,5.62-11.49,7.48-22.37-6.82,10.65-23.52,35.57-32.76,35.56-.74,0-3.79,0-3.97-1.19-.22-1.47,4.15-3.45,7.96-6.51,0,0,5.72-4.6,11.74-15.95,8.23-15.54,10.61-46.22,3.35-68.74-2.31-8.24-3.92-11-5.16-15.03-.84-2.71-2.71-8.81-1.55-15.77.71-4.22,2.28-7.21,2.84-8.25,1.83-3.4,3.83-5.38,5.11-6.31,6.72-4.92,9.78-5.33,14.75-8.53,2.98-1.92,11.52-7.62,16.49-20.02.17-.41.3-.75.48-1.24,3.8-10.62,1.4-22.01.32-27.13-1.05-4.97-1.83-6.08-3.5-14.21-.55-2.66-.95-4.6-1.28-6.87-.68-4.69-1.8-12.34-.12-20.34,1.85-8.85,6.32-14.24,8.62-16.62.78-.87,2.03-2.84,1.46-3.58-.9-1.01-2.07-.66-3.7-.48-5.24.59-8.79,4.65-8.96,4.83-4.59,4.85-5.72,11.39-6.65,16.75-.77,4.47-1.6,12.32.24,22.17"/>
  </g>
  <g>
    <rect class="st1" x="1462.38" y="1174.82" width="362.59" height="1.12" transform="translate(466.45 2817.72) rotate(-89.94)"/>
    <text class="st0" transform="translate(1729.88 1121.6) scale(.68 1)"><tspan class="st1" x="0" y="0">BODY</tspan><tspan class="st5" x="200.3" y="0"> </tspan><tspan class="st1" x="0" y="74.81">EDGE</tspan><tspan class="st5" x="200.48" y="74.81"> </tspan><tspan class="st1"><tspan x="0" y="149.62">TECHNOLOGIES</tspan></tspan></text>
    <path class="st1" d="M1372.74,1137.21c.47,2.16,1.57,7.12,2.36,13.24.19,1.48.28,2.35.34,3.28.04.67.22,3.33,0,5.74,0,0-.34,3.76-2.17,7.74-3.29,7.18-13.59,11.88-24.43,20.52-6.43,5.12-7.62,7.77-8.63,9.52-1.2,2.07-6.44,11.67-5.79,32.5.7,22.35,7.23,27.08,8.25,43.22.65,10.26-.88,25.89-12.66,46.51-.68.87-1.45,1.75-1.65,1.52-.37-.42,1.37-4.18,3.09-8.5.18-.46,2.85-7.18,4.39-12.58,3.3-11.57,2.9-22.28,2.71-26.58-.18-4.08-.6-7.02-.9-8.8-.55-3.24-1.14-6.78-2.84-10.63-.69-1.57-2.4-5.1-5.05-7.67-4.21-4.08-8.84-3.89-12.34-3.77-7.64.27-15.32-2.44-22.9-1.39-5.61,1.89,1.08,8.12,3.51,9.52,5.88,4.11,12.44,6.05,18.9,7.95,1.68.5,8.18,2.44,5.66,5.97-12.87,7.31-40.02-13.77-46.97-29.74-1.7-3.97.89-6.62,3.28-6.05,9.11.47,53.85,17.25,48.75-2.77-6.87-16.42-27.77-21.22-39.88-26.35-20.72-7.93-37.62-27.53-55.8-42.76-5.71-5.21-10.86-4.68-6.32,5.83,13.18,32.18,38.52,39.62,62.55,47.55,1.59.78,3.43,1.8,4.95,3.15,2.2,1.77,3.45,5.36.14,4.67-4.3-1.04-9.02-4.45-13.41-5.06-28.74-5.35-59.02-27.12-65.44-68.55-1.92-11.97,3.21-11.63,8.26-5.8,26.9,28.33,58.18,49.29,90.92,60.89,2.94,1.12,8.26,2.97,9.69-2.01,1.28-4.87-.62-10.26-2.8-14.25-1.92-3.37-4.46-5.85-7.2-7.78-34.24-19.6-63.75-52.67-90.25-88.44-2.07-3.32-6.76-6.58-5.95.57,2.53,14.58,18.12,32.95,23.83,43.8,3.75,6.99-.95,7.02-4.26,3.02-13.84-16.14-33.33-42.02-29.04-70.44.49-2.89,1.64-6.31,3.73-7.28,1.85-.95,4.09.31,5.52,1.83,21.04,25.47,84.9,116.78,104.82,101.05,1.85-1.77.21-4.86-.91-7.12-25.74-37.55-49.56-77.83-74.45-116.63-2.35-3.42-5.76-4.65-5.72,1.29.36,6.39,2.74,11.84,5,17.28,1.5,3.72,3.32,7.15,4.22,11.29.77,4.05-1.44,4.9-3.69,2.39-11.1-15.01-23.71-54.37-15.76-71.99,1.2-2.68,3.49-2.42,5.23-.5,38.85,55.32,75.01,119.74,109.33,179.05,4.07,4.54,9.14,3.71,13.23-.45,6.59-6.92,11.22-19.38,9.55-31.2-1.51-8.49-5.87-15.61-6.65-24.43-1.71-13.36.64-28.6,7.86-38,8.2-9.91,21.57-11.64,30.12-2.61,4.8,5.72,3.72,14.88,8.63,21.86,4.28,6.68,10.01,4.11,6.89,9.73-1.16,2.62-2.4,4.06-3.28,7.29-.83,2.92-.37,6.7.56,9.35,1.18,3.72-.23,9.55-3.52,9.89-6.77.52-11.48,4.02-13.81,13.45-2.64,9.61-.58,24.38,6.85,28.19,3.94,1.64,9.28-2.18,13.57-4.54,8.5-5.31,16.97-9.45,25.51-14.49,29.69-19.34,66.4-37.38,103.75-60.08,4.87-2.07,16.9-14.12,15.36,1.57-4.08,22.84-18.3,42.75-33.25,53.1-2.04,1.73-6.22,1.46-3.56-2.85,1.51-3.22,23.05-23.01,16.37-28.35-3.11-1.26-10.82,2.46-15.89,5.13-18.77,10.14-38.51,21.09-51.68,28.63-30.99,19-57.71,31.39-47.13,44.63,1.83,2.51,3.09,2.86,5.34,3.48,5.1,1.04,10.85-.18,15.93-1.66,28.66-12.59,91.63-30.86,103.75-35.94,8.95-4.12,8.91,8.98,5.81,17.34-3.54,22.37-63.85,58.03-44.5,35.73h.01c4.97-3.47,10.44-7.77,16.17-13.13,5.37-5.01,10.04-10.09,14.05-14.89,4.14-9.24-14.45-3.17-39.37,2.61-17.73,4.7-35.88,8.92-54.77,15.06-5.43,2.24-20.37,5.5-21.46,12.79-1.53,5.41.4,12.27,4.64,13.3,30.46,12.59,63.21,11.46,94.42,3.7,1.7-.51,4.62-.52,4.65,2.57.04,2.09-1.18,4.86-2.18,6.81-21.05,40.99-50.18,34.85-81.19,20.42-4.29-1.67-5.03-4.95.18-5.13,7.17.04,13.89,3.86,20.71,6.5,16.35,6.25,36.72,5.1,47.84-13.87.72-1.44,1.05-3.1.54-4.25-.68-1.7-3-1.98-4.63-1.77-22.17,3.82-44.7,9.35-66.46,1.01-7.96-2.69-16.25-5.91-24.44-3.3-8.7,2.71-15.36,13.16-4.75,21.1,19.68,16.78,42.13,25.7,64.78,29.36,21.98,2.68-26.14,46.78-57.72,9.38-5.09-5.49-10.86-9.48-16.19-14.44-3.67-4.45,1.27-3.92,3.31-2.27,15.51,10.08,41.17,39.92,61.76,19.31,2.06-2.89-.07-5.77-2.32-6.4-21.42-5.19-42.75-11.36-62.23-25.37-3.05-2.1-6.48-4.37-9.9-3.45-10.27,3.38-14.11,21.69-18.44,33.58-8.53,27.3-25.13,50.95-47.35,46.92-.49-.09-3.6-1.83-3.48-3.23.13-1.53,4.05-1.71,7.2-2.41,13.19-2.92,22.26-19.28,23.73-22,2.24-4.11,5.62-11.49,7.48-22.37-6.82,10.65-23.52,35.57-32.76,35.56-.74,0-3.79,0-3.97-1.19-.22-1.47,4.15-3.45,7.96-6.51,0,0,5.72-4.6,11.74-15.95,8.23-15.54,10.61-46.22,3.35-68.74-2.31-8.24-3.92-11-5.16-15.03-.84-2.71-2.71-8.81-1.55-15.77.71-4.22,2.28-7.21,2.84-8.25,1.83-3.4,3.83-5.38,5.11-6.31,6.72-4.92,9.78-5.33,14.75-8.53,2.98-1.92,11.52-7.62,16.49-20.02.17-.41.3-.75.48-1.24,3.8-10.62,1.4-22.01.32-27.13-1.05-4.97-1.83-6.08-3.5-14.21-.55-2.66-.95-4.6-1.28-6.87-.68-4.69-1.8-12.34-.12-20.34,1.85-8.85,6.32-14.24,8.62-16.62.78-.87,2.03-2.84,1.46-3.58-.9-1.01-2.07-.66-3.7-.48-5.24.59-8.79,4.65-8.96,4.83-4.59,4.85-5.72,11.39-6.65,16.75-.77,4.47-1.6,12.32.24,22.17"/>
  </g>
</svg>