<?xml version="1.0" encoding="UTF-8"?>
<svg id="Capa_1" xmlns="http://www.w3.org/2000/svg" version="1.1" viewBox="0 0 2191.67 1580">
  <!-- Generator: Adobe Illustrator 29.5.1, SVG Export Plug-In . SVG Version: 2.1.0 Build 141)  -->
  <defs>
    <style>
      .st0 {
        fill: #fff;
      }

      .st1 {
        fill: #0060a2;
        font-family: TwCenMT-Bold, 'Tw Cen MT';
        font-size: 48px;
      }

      .st1, .st2 {
        font-weight: 700;
      }

      .st2 {
        font-family: CopperplateGothic-Bold, 'Copperplate Gothic Bold';
        font-size: 89.32px;
      }

      .st3 {
        fill: #1d1d1b;
      }

      .st4 {
        letter-spacing: 0em;
      }

      .st5 {
        fill: none;
        stroke: #000;
        stroke-miterlimit: 10;
        stroke-width: 3px;
      }
    </style>
  </defs>
  <rect class="st5" x="109.65" y="114.29" width="1969.88" height="1383.29"/>
  <rect class="st0" x="148.78" y="71.89" width="490.71" height="142.93"/>
  <text class="st1" transform="translate(200.53 130.72)"><tspan x="0" y="0">Positivo y Negativo</tspan></text>
  <rect class="st3" x="777.18" y="508.95" width="519.49" height="1.78" transform="translate(526.02 1546.24) rotate(-89.94)"/>
  <text class="st2" transform="translate(1174.42 432.8) scale(.76 1)"><tspan class="st3" x="0" y="0">B</tspan><tspan x="72.01" y="0">ODY </tspan><tspan class="st3" x="0" y="107.18">E</tspan><tspan x="67.86" y="107.18">DGE </tspan><tspan class="st3" x="0" y="214.37">T</tspan><tspan x="60.23" y="214.37">ECHNOLOGIES</tspan></text>
  <path class="st3" d="M604.77,455.16c.76,3.1,2.5,10.21,3.76,18.96.31,2.12.45,3.37.54,4.69.07.96.35,4.77,0,8.22,0,0-.55,5.39-3.46,11.09-5.25,10.28-21.68,17.02-38.97,29.39-10.25,7.34-12.15,11.13-13.76,13.64-1.91,2.96-10.28,16.72-9.24,46.57,1.12,32.02,11.53,38.8,13.17,61.92,1.03,14.7-1.4,37.09-20.19,66.63-1.09,1.25-2.31,2.5-2.64,2.17-.59-.61,2.18-5.99,4.93-12.18.29-.66,4.54-10.28,7-18.02,5.26-16.58,4.63-31.92,4.32-38.08-.29-5.85-.96-10.06-1.44-12.6-.87-4.64-1.82-9.72-4.53-15.24-1.1-2.24-3.84-7.31-8.05-10.99-6.71-5.85-14.11-5.58-19.68-5.4-12.18.39-24.44-3.49-36.53-1.99-8.95,2.7,1.72,11.64,5.6,13.64,9.38,5.89,19.84,8.67,30.14,11.39,2.68.72,13.05,3.49,9.03,8.55-20.53,10.47-63.83-19.73-74.91-42.6-2.71-5.68,1.42-9.49,5.23-8.66,14.53.68,85.9,24.71,77.75-3.96-10.96-23.53-44.3-30.4-63.61-37.75-33.05-11.37-60-39.44-89-61.26-9.11-7.47-17.33-6.71-10.09,8.35,21.03,46.11,61.45,56.76,99.77,68.12,2.54,1.11,5.47,2.58,7.9,4.52,3.51,2.54,5.51,7.67.23,6.69-6.86-1.49-14.39-6.37-21.39-7.25-45.84-7.67-94.13-38.86-104.37-98.22-3.06-17.15,5.12-16.66,13.18-8.31,42.9,40.59,92.79,70.62,145.01,87.24,4.68,1.61,13.18,4.26,15.46-2.89,2.05-6.98-.98-14.7-4.46-20.41-3.07-4.82-7.11-8.38-11.48-11.14-54.61-28.08-101.69-75.46-143.95-126.7-3.31-4.76-10.78-9.43-9.5.82,4.03,20.88,28.9,47.21,38,62.76,5.98,10.01-1.51,10.06-6.79,4.33-22.08-23.13-53.16-60.2-46.31-100.92.78-4.14,2.62-9.05,5.95-10.43,2.94-1.36,6.53.44,8.81,2.62,33.55,36.49,135.42,167.32,167.2,144.77,2.96-2.54.34-6.97-1.45-10.19-41.06-53.81-79.05-111.5-118.75-167.1-3.75-4.89-9.18-6.66-9.12,1.84.57,9.15,4.38,16.96,7.97,24.75,2.4,5.34,5.29,10.25,6.73,16.17,1.23,5.81-2.3,7.02-5.89,3.42-17.7-21.51-37.82-77.9-25.14-103.13,1.92-3.83,5.57-3.47,8.35-.71,61.97,79.26,119.64,171.56,174.39,256.53,6.49,6.5,14.58,5.32,21.1-.64,10.51-9.91,17.89-27.77,15.23-44.7-2.41-12.16-9.37-22.36-10.61-35.01-2.73-19.14,1.02-40.97,12.53-54.44,13.07-14.2,34.4-16.68,48.04-3.75,7.65,8.2,5.93,21.32,13.76,31.31,6.82,9.58,15.97,5.88,10.99,13.94-1.85,3.75-3.82,5.81-5.24,10.45-1.32,4.19-.58,9.59.89,13.39,1.88,5.33-.37,13.68-5.62,14.17-10.8.75-18.31,5.76-22.03,19.28-4.21,13.77-.92,34.93,10.92,40.39,6.29,2.35,14.81-3.12,21.65-6.5,13.56-7.6,27.07-13.54,40.68-20.76,47.36-27.72,105.91-53.55,165.48-86.07,7.76-2.96,26.96-20.23,24.51,2.25-6.51,32.73-29.18,61.25-53.03,76.07-3.25,2.49-9.92,2.09-5.67-4.08,2.4-4.61,36.76-32.97,26.11-40.61-4.96-1.8-17.25,3.53-25.34,7.35-29.95,14.53-61.42,30.21-82.43,41.01-49.44,27.22-92.06,44.97-75.17,63.94,2.92,3.6,4.93,4.1,8.52,4.98,8.13,1.49,17.3-.25,25.41-2.37,45.71-18.04,146.15-44.22,165.49-51.49,14.27-5.91,14.21,12.86,9.27,24.85-5.65,32.05-101.84,83.15-70.98,51.19l.02-.02c7.92-4.95,16.65-11.12,25.8-18.79,8.56-7.18,16.01-14.45,22.4-21.33,6.61-13.24-23.05-4.54-62.8,3.74-28.29,6.73-57.23,12.78-87.37,21.58-8.67,3.22-32.5,7.88-34.22,18.33-2.44,7.75.63,17.58,7.41,19.06,48.58,18.03,100.82,16.43,150.6,5.3,2.71-.73,7.36-.74,7.41,3.68.06,3-1.87,6.97-3.48,9.76-33.57,58.73-80.04,49.93-129.49,29.26-6.84-2.4-8.03-7.09.29-7.35,11.44.06,22.15,5.53,33.03,9.32,26.08,8.95,58.57,7.3,76.3-19.87,1.14-2.07,1.68-4.44.86-6.09-1.09-2.44-4.79-2.83-7.39-2.53-35.36,5.48-71.29,13.4-106.01,1.44-12.7-3.86-25.92-8.47-38.98-4.73-13.87,3.88-24.49,18.86-7.58,30.23,31.39,24.05,67.2,36.82,103.33,42.06,35.06,3.84-41.69,67.02-92.06,13.44-8.13-7.87-17.31-13.58-25.83-20.69-5.85-6.38,2.02-5.61,5.28-3.26,24.74,14.44,65.67,57.19,98.51,27.67,3.29-4.14-.11-8.26-3.7-9.17-34.17-7.43-68.19-16.27-99.26-36.35-4.86-3.02-10.34-6.26-15.8-4.95-16.37,4.84-22.51,31.08-29.41,48.1-13.61,39.11-40.08,73-75.53,67.22-.78-.13-5.74-2.62-5.55-4.62.2-2.2,6.46-2.45,11.48-3.45,21.04-4.19,35.5-27.63,37.85-31.51,3.57-5.89,8.96-16.46,11.93-32.04-10.87,15.25-37.52,50.96-52.25,50.95-1.18,0-6.04,0-6.33-1.7-.35-2.1,6.62-4.94,12.7-9.33,0,0,9.13-6.6,18.72-22.85,13.13-22.26,16.92-66.22,5.35-98.48-3.69-11.8-6.25-15.77-8.23-21.54-1.33-3.88-4.33-12.63-2.47-22.59,1.13-6.05,3.64-10.33,4.53-11.82,2.92-4.88,6.12-7.71,8.15-9.05,10.71-7.05,15.6-7.64,23.52-12.23,4.75-2.75,18.37-10.92,26.3-28.68.26-.59.48-1.07.76-1.78,6.07-15.22,2.23-31.54.51-38.87-1.67-7.12-2.92-8.72-5.59-20.36-.88-3.82-1.51-6.59-2.04-9.85-1.09-6.72-2.87-17.69-.19-29.14,2.96-12.68,10.08-20.41,13.75-23.81,1.24-1.25,3.24-4.08,2.32-5.13-1.44-1.45-3.31-.95-5.9-.69-8.36.84-14.02,6.67-14.29,6.93-7.32,6.94-9.12,16.32-10.6,24-1.23,6.41-2.55,17.65.38,31.76"/>
  <rect class="st3" x="105.86" y="831.23" width="1973.66" height="666.35"/>
  <g>
    <rect class="st0" x="777.18" y="1170.6" width="519.49" height="1.78" transform="translate(-135.62 2207.22) rotate(-89.94)"/>
    <text class="st2" transform="translate(1174.42 1094.45) scale(.76 1)"><tspan class="st0" x="0" y="0">BODY</tspan><tspan class="st4" x="286.97" y="0"> </tspan><tspan class="st0" x="0" y="107.18">EDGE</tspan><tspan x="287.24" y="107.18"> </tspan><tspan class="st0"><tspan x="0" y="214.37">TECHNOLOGIES</tspan></tspan></text>
    <path class="st0" d="M604.77,1116.81c.76,3.1,2.5,10.21,3.76,18.96.31,2.12.45,3.37.54,4.69.07.96.35,4.77,0,8.22,0,0-.55,5.39-3.46,11.09-5.25,10.28-21.68,17.02-38.97,29.39-10.25,7.34-12.15,11.13-13.76,13.64-1.91,2.96-10.28,16.72-9.24,46.57,1.12,32.02,11.53,38.8,13.17,61.92,1.03,14.7-1.4,37.09-20.19,66.63-1.09,1.25-2.31,2.5-2.64,2.17-.59-.61,2.18-5.99,4.93-12.18.29-.66,4.54-10.28,7-18.02,5.26-16.58,4.63-31.92,4.32-38.08-.29-5.85-.96-10.06-1.44-12.6-.87-4.64-1.82-9.72-4.53-15.24-1.1-2.24-3.84-7.31-8.05-10.99-6.71-5.85-14.11-5.58-19.68-5.4-12.18.39-24.44-3.49-36.53-1.99-8.95,2.7,1.72,11.64,5.6,13.64,9.38,5.89,19.84,8.67,30.14,11.39,2.68.72,13.05,3.49,9.03,8.55-20.53,10.47-63.83-19.73-74.91-42.6-2.71-5.68,1.42-9.49,5.23-8.66,14.53.68,85.9,24.71,77.75-3.96-10.96-23.53-44.3-30.4-63.61-37.75-33.05-11.37-60-39.44-89-61.26-9.11-7.47-17.33-6.71-10.09,8.35,21.03,46.11,61.45,56.76,99.77,68.12,2.54,1.11,5.47,2.58,7.9,4.52,3.51,2.54,5.51,7.67.23,6.69-6.86-1.49-14.39-6.37-21.39-7.25-45.84-7.67-94.13-38.86-104.37-98.22-3.06-17.15,5.12-16.66,13.18-8.31,42.9,40.59,92.79,70.62,145.01,87.24,4.68,1.61,13.18,4.26,15.46-2.89,2.05-6.98-.98-14.7-4.46-20.41-3.07-4.82-7.11-8.38-11.48-11.14-54.61-28.08-101.69-75.46-143.95-126.7-3.31-4.76-10.78-9.43-9.5.82,4.03,20.88,28.9,47.21,38,62.76,5.98,10.01-1.51,10.06-6.79,4.33-22.08-23.13-53.16-60.2-46.31-100.92.78-4.14,2.62-9.05,5.95-10.43,2.94-1.36,6.53.44,8.81,2.62,33.55,36.49,135.42,167.32,167.2,144.77,2.96-2.54.34-6.97-1.45-10.19-41.06-53.81-79.05-111.5-118.75-167.1-3.75-4.89-9.18-6.66-9.12,1.84.57,9.15,4.38,16.96,7.97,24.75,2.4,5.34,5.29,10.25,6.73,16.17,1.23,5.81-2.3,7.02-5.89,3.42-17.7-21.51-37.82-77.9-25.14-103.13,1.92-3.83,5.57-3.47,8.35-.71,61.97,79.26,119.64,171.56,174.39,256.53,6.49,6.5,14.58,5.32,21.1-.64,10.51-9.91,17.89-27.77,15.23-44.7-2.41-12.16-9.37-22.36-10.61-35.01-2.73-19.14,1.02-40.97,12.53-54.44,13.07-14.2,34.4-16.68,48.04-3.75,7.65,8.2,5.93,21.32,13.76,31.31,6.82,9.58,15.97,5.88,10.99,13.94-1.85,3.75-3.82,5.81-5.24,10.45-1.32,4.19-.58,9.59.89,13.39,1.88,5.33-.37,13.68-5.62,14.17-10.8.75-18.31,5.76-22.03,19.28-4.21,13.77-.92,34.93,10.92,40.39,6.29,2.35,14.81-3.12,21.65-6.5,13.56-7.6,27.07-13.54,40.68-20.76,47.36-27.72,105.91-53.55,165.48-86.07,7.76-2.96,26.96-20.23,24.51,2.25-6.51,32.73-29.18,61.25-53.03,76.07-3.25,2.49-9.92,2.09-5.67-4.08,2.4-4.61,36.76-32.97,26.11-40.61-4.96-1.8-17.25,3.53-25.34,7.35-29.95,14.53-61.42,30.21-82.43,41.01-49.44,27.22-92.06,44.97-75.17,63.94,2.92,3.6,4.93,4.1,8.52,4.98,8.13,1.49,17.3-.25,25.41-2.37,45.71-18.04,146.15-44.22,165.49-51.49,14.27-5.91,14.21,12.86,9.27,24.85-5.65,32.05-101.84,83.15-70.98,51.19l.02-.02c7.92-4.95,16.65-11.12,25.8-18.79,8.56-7.18,16.01-14.45,22.4-21.33,6.61-13.24-23.05-4.54-62.8,3.74-28.29,6.73-57.23,12.78-87.37,21.58-8.67,3.22-32.5,7.88-34.22,18.33-2.44,7.75.63,17.58,7.41,19.06,48.58,18.03,100.82,16.43,150.6,5.3,2.71-.73,7.36-.74,7.41,3.68.06,3-1.87,6.97-3.48,9.76-33.57,58.73-80.04,49.93-129.49,29.26-6.84-2.4-8.03-7.09.29-7.35,11.44.06,22.15,5.53,33.03,9.32,26.08,8.95,58.57,7.3,76.3-19.87,1.14-2.07,1.68-4.44.86-6.09-1.09-2.44-4.79-2.83-7.39-2.53-35.36,5.48-71.29,13.4-106.01,1.44-12.7-3.86-25.92-8.47-38.98-4.73-13.87,3.88-24.49,18.86-7.58,30.23,31.39,24.05,67.2,36.82,103.33,42.06,35.06,3.84-41.69,67.02-92.06,13.44-8.13-7.87-17.31-13.58-25.83-20.69-5.85-6.38,2.02-5.61,5.28-3.26,24.74,14.44,65.67,57.19,98.51,27.67,3.29-4.14-.11-8.26-3.7-9.17-34.17-7.43-68.19-16.27-99.26-36.35-4.86-3.02-10.34-6.26-15.8-4.95-16.37,4.84-22.51,31.08-29.41,48.1-13.61,39.11-40.08,73-75.53,67.22-.78-.13-5.74-2.62-5.55-4.62.2-2.2,6.46-2.45,11.48-3.45,21.04-4.19,35.5-27.63,37.85-31.51,3.57-5.89,8.96-16.46,11.93-32.04-10.87,15.25-37.52,50.96-52.25,50.95-1.18,0-6.04,0-6.33-1.7-.35-2.1,6.62-4.94,12.7-9.33,0,0,9.13-6.6,18.72-22.85,13.13-22.26,16.92-66.22,5.35-98.48-3.69-11.8-6.25-15.77-8.23-21.54-1.33-3.88-4.33-12.63-2.47-22.59,1.13-6.05,3.64-10.33,4.53-11.82,2.92-4.88,6.12-7.71,8.15-9.05,10.71-7.05,15.6-7.64,23.52-12.23,4.75-2.75,18.37-10.92,26.3-28.68.26-.59.48-1.07.76-1.78,6.07-15.22,2.23-31.54.51-38.87-1.67-7.12-2.92-8.72-5.59-20.36-.88-3.82-1.51-6.59-2.04-9.85-1.09-6.72-2.87-17.69-.19-29.14,2.96-12.68,10.08-20.41,13.75-23.81,1.24-1.25,3.24-4.08,2.32-5.13-1.44-1.45-3.31-.95-5.9-.69-8.36.84-14.02,6.67-14.29,6.93-7.32,6.94-9.12,16.32-10.6,24-1.23,6.41-2.55,17.65.38,31.76"/>
  </g>
</svg>