<?xml version="1.0" encoding="UTF-8"?>
<svg id="Capa_1" xmlns="http://www.w3.org/2000/svg" version="1.1" xmlns:xlink="http://www.w3.org/1999/xlink" viewBox="0 0 2191.67 1580">
  <!-- Generator: Adobe Illustrator 29.5.1, SVG Export Plug-In . SVG Version: 2.1.0 Build 141)  -->
  <defs>
    <style>
      .st0, .st1 {
        fill: #a6ebed;
      }

      .st2 {
        fill: url(#Degradado_sin_nombre_151);
      }

      .st3 {
        stroke: #000;
      }

      .st3, .st4 {
        fill: none;
        stroke-miterlimit: 10;
      }

      .st5 {
        fill: url(#Degradado_sin_nombre_1513);
      }

      .st6 {
        fill: url(#Degradado_sin_nombre_150);
      }

      .st7 {
        fill: url(#Degradado_sin_nombre_149);
      }

      .st8 {
        fill: url(#Degradado_sin_nombre_73);
      }

      .st9 {
        fill: url(#Degradado_sin_nombre_148);
      }

      .st10 {
        fill: url(#Degradado_sin_nombre_69);
      }

      .st11 {
        fill: #023d54;
      }

      .st12 {
        fill: #519acd;
      }

      .st13 {
        fill: url(#Degradado_sin_nombre_1511);
      }

      .st14 {
        fill: url(#Degradado_sin_nombre_694);
      }

      .st1 {
        font-size: 197.69px;
      }

      .st1, .st15, .st16 {
        font-weight: 700;
      }

      .st1, .st16 {
        font-family: CopperplateGothic-Bold, 'Copperplate Gothic Bold';
      }

      .st17 {
        fill: url(#Degradado_sin_nombre_78);
      }

      .st18 {
        fill: url(#Degradado_sin_nombre_731);
      }

      .st19 {
        fill: url(#Degradado_sin_nombre_71);
      }

      .st20 {
        fill: url(#Degradado_sin_nombre_692);
      }

      .st21 {
        fill: #214356;
      }

      .st22 {
        fill: url(#Degradado_sin_nombre_732);
      }

      .st23 {
        fill: url(#Degradado_sin_nombre_691);
      }

      .st24 {
        fill: url(#Degradado_sin_nombre_1512);
      }

      .st15 {
        fill: #0060a2;
        font-family: TwCenMT-Bold, 'Tw Cen MT';
        font-size: 48px;
      }

      .st25 {
        fill: url(#Degradado_sin_nombre_693);
      }

      .st26 {
        fill: url(#Degradado_sin_nombre_1481);
      }

      .st16 {
        font-size: 36px;
      }

      .st27 {
        fill: url(#Degradado_sin_nombre_1482);
      }

      .st28 {
        fill: url(#Degradado_sin_nombre_1514);
      }

      .st4 {
        stroke: url(#Degradado_sin_nombre_79);
      }
    </style>
    <linearGradient id="Degradado_sin_nombre_69" data-name="Degradado sin nombre 69" x1="143.75" y1="-17.88" x2="155.83" y2="-17.88" gradientTransform="translate(0 582)" gradientUnits="userSpaceOnUse">
      <stop offset="0" stop-color="#56a4db"/>
      <stop offset="1" stop-color="#4a8bb8"/>
    </linearGradient>
    <linearGradient id="Degradado_sin_nombre_691" data-name="Degradado sin nombre 69" x1="337.08" y1="-306.26" x2="385.73" y2="-306.26" xlink:href="#Degradado_sin_nombre_69"/>
    <linearGradient id="Degradado_sin_nombre_692" data-name="Degradado sin nombre 69" x1="196.71" y1="125.18" x2="327.56" y2="125.18" xlink:href="#Degradado_sin_nombre_69"/>
    <linearGradient id="Degradado_sin_nombre_693" data-name="Degradado sin nombre 69" x1="204.88" y1="-246.32" x2="329.16" y2="-246.32" gradientTransform="translate(1.33 573.01) rotate(-.23)" xlink:href="#Degradado_sin_nombre_69"/>
    <linearGradient id="Degradado_sin_nombre_694" data-name="Degradado sin nombre 69" x1="150.24" y1="50.08" x2="196.72" y2="50.08" xlink:href="#Degradado_sin_nombre_69"/>
    <linearGradient id="Degradado_sin_nombre_73" data-name="Degradado sin nombre 73" x1="332.52" y1="179.13" x2="380.44" y2="179.13" gradientTransform="translate(0 582)" gradientUnits="userSpaceOnUse">
      <stop offset="0" stop-color="#56a4db"/>
      <stop offset="1" stop-color="#76c092"/>
    </linearGradient>
    <linearGradient id="Degradado_sin_nombre_78" data-name="Degradado sin nombre 78" x1="471.76" y1="159.68" x2="519.72" y2="159.68" gradientTransform="translate(34.94 246.36) rotate(-2.26)" gradientUnits="userSpaceOnUse">
      <stop offset="0" stop-color="#56a4db"/>
      <stop offset=".85" stop-color="#74c19f"/>
    </linearGradient>
    <linearGradient id="Degradado_sin_nombre_71" data-name="Degradado sin nombre 71" x1="-36.93" y1="-605.62" x2="451.87" y2="-605.62" gradientTransform="translate(2.47 1060.09) rotate(13.79) scale(1.03 .98)" gradientUnits="userSpaceOnUse">
      <stop offset="0" stop-color="#4a8bb8"/>
      <stop offset=".81" stop-color="#76c092"/>
    </linearGradient>
    <linearGradient id="Degradado_sin_nombre_731" data-name="Degradado sin nombre 73" x1="349.22" y1="202.96" x2="487.12" y2="202.96" gradientTransform="translate(33.62 537.52) rotate(-1.68) scale(1.02 .94)" xlink:href="#Degradado_sin_nombre_73"/>
    <linearGradient id="Degradado_sin_nombre_732" data-name="Degradado sin nombre 73" x1="373.07" y1="85.49" x2="482.99" y2="85.49" gradientTransform="translate(24.09 294.01) rotate(-7.64)" xlink:href="#Degradado_sin_nombre_73"/>
    <linearGradient id="Degradado_sin_nombre_151" data-name="Degradado sin nombre 151" x1="867.99" y1="-120.92" x2="880.06" y2="-120.92" gradientTransform="translate(0 582)" gradientUnits="userSpaceOnUse">
      <stop offset="0" stop-color="#63a7de"/>
      <stop offset="1" stop-color="#558fbd"/>
    </linearGradient>
    <linearGradient id="Degradado_sin_nombre_1511" data-name="Degradado sin nombre 151" x1="1061.32" y1="-409.3" x2="1109.96" y2="-409.3" xlink:href="#Degradado_sin_nombre_151"/>
    <linearGradient id="Degradado_sin_nombre_1512" data-name="Degradado sin nombre 151" x1="920.95" y1="22.14" x2="1051.8" y2="22.14" xlink:href="#Degradado_sin_nombre_151"/>
    <linearGradient id="Degradado_sin_nombre_1513" data-name="Degradado sin nombre 151" x1="929.53" y1="-346.46" x2="1053.81" y2="-346.46" gradientTransform="translate(1.33 573.01) rotate(-.23)" xlink:href="#Degradado_sin_nombre_151"/>
    <linearGradient id="Degradado_sin_nombre_1514" data-name="Degradado sin nombre 151" x1="874.48" y1="-52.97" x2="920.96" y2="-52.97" xlink:href="#Degradado_sin_nombre_151"/>
    <linearGradient id="Degradado_sin_nombre_148" data-name="Degradado sin nombre 148" x1="1056.76" y1="76.09" x2="1104.67" y2="76.09" gradientTransform="translate(0 582)" gradientUnits="userSpaceOnUse">
      <stop offset="0" stop-color="#63a7de"/>
      <stop offset="1" stop-color="#142a50"/>
    </linearGradient>
    <linearGradient id="Degradado_sin_nombre_150" data-name="Degradado sin nombre 150" x1="1203.27" y1="153.83" x2="1251.23" y2="153.83" gradientTransform="translate(28.47 178) rotate(-2.26)" gradientUnits="userSpaceOnUse">
      <stop offset="0" stop-color="#63a7de"/>
      <stop offset=".85" stop-color="#131e50"/>
    </linearGradient>
    <linearGradient id="Degradado_sin_nombre_149" data-name="Degradado sin nombre 149" x1="622.1" y1="-883.89" x2="1110.9" y2="-883.89" gradientTransform="translate(2.47 1060.09) rotate(13.79) scale(1.03 .98)" gradientUnits="userSpaceOnUse">
      <stop offset="0" stop-color="#558fbd"/>
      <stop offset=".81" stop-color="#142a50"/>
    </linearGradient>
    <linearGradient id="Degradado_sin_nombre_1481" data-name="Degradado sin nombre 148" x1="1061.91" y1="115.97" x2="1199.81" y2="115.97" gradientTransform="translate(33.62 537.52) rotate(-1.68) scale(1.02 .94)" xlink:href="#Degradado_sin_nombre_148"/>
    <linearGradient id="Degradado_sin_nombre_1482" data-name="Degradado sin nombre 148" x1="1104.58" y1="79.64" x2="1214.49" y2="79.64" gradientTransform="translate(24.09 294.01) rotate(-7.64)" xlink:href="#Degradado_sin_nombre_148"/>
    <linearGradient id="Degradado_sin_nombre_79" data-name="Degradado sin nombre 79" x1="371.1" y1="1199.38" x2="372.1" y2="1199.38" gradientUnits="userSpaceOnUse">
      <stop offset="0" stop-color="#00486a"/>
      <stop offset=".97" stop-color="#00486a"/>
    </linearGradient>
  </defs>
  <text class="st15" transform="translate(161.38 130.72)"><tspan x="0" y="0">Variaciones del logotipo</tspan></text>
  <rect class="st10" x="143.75" y="533.83" width="12.08" height="60.58"/>
  <g>
    <ellipse class="st23" cx="361.4" cy="275.74" rx="24.32" ry="27.13"/>
    <path class="st20" d="M196.71,670.71c41.18,28.15,82.36,56.31,123.55,84.46,2.43-3.78,4.86-7.58,7.3-11.35-40.95-28.22-81.9-56.42-122.85-84.63-2.66,3.83-5.33,7.68-7.99,11.51h-.01s0,0,0,0Z"/>
    <path class="st25" d="M329.38,295.34c-2.43-3.78-4.86-7.58-7.3-11.35-38.91,23.97-77.83,47.94-116.74,71.91,2.43,3.78,4.86,7.58,7.3,11.35,38.91-23.97,77.83-47.94,116.74-71.91h0Z"/>
    <ellipse class="st14" cx="173.48" cy="632.08" rx="23.24" ry="27.13"/>
    <ellipse class="st8" cx="356.48" cy="761.13" rx="23.96" ry="27.13"/>
    <ellipse class="st17" cx="536.59" cy="386.37" rx="23.97" ry="27.12" transform="translate(-33.86 52.01) rotate(-5.38)"/>
    <path class="st19" d="M549.79,555.65c-27.06,23.04,57.28-13.8,62.23-36.91,4.33-8.64,4.38-22.17-8.13-17.91-16.95,5.24-105.02,24.12-145.1,37.13-7.11,1.53-15.14,2.79-22.28,1.71-3.14-.63-4.91-1-7.47-3.59-14.81-13.68,22.56-26.47,65.91-46.1,18.42-7.79,46.01-19.09,72.27-29.57,7.09-2.76,17.87-6.6,22.22-5.3,9.34,5.51-20.79,25.95-22.89,29.28-3.72,4.45,2.13,4.74,4.98,2.94,20.91-10.68,40.79-31.25,46.5-54.85,2.15-16.21-14.68-3.76-21.49-1.62-52.23,23.45-103.57,42.08-145.1,62.06-11.94,5.21-23.78,9.49-35.67,14.97-6,2.44-13.47,6.38-18.98,4.69-10.38-3.93-13.26-19.19-9.58-29.12,3.26-9.74,9.85-13.36,19.32-13.9,4.6-.36,6.58-6.38,4.93-10.22-1.29-2.74-1.94-6.64-.78-9.66,1.24-3.34,2.98-4.82,4.59-7.53,4.36-5.81-3.66-3.15-9.64-10.05-6.87-7.21-5.36-16.67-12.07-22.58-11.96-9.32-30.66-7.54-42.12,2.7-10.09,9.71-13.38,25.45-10.99,39.25,1.09,9.12,7.19,16.47,9.31,25.24,2.33,12.21-4.14,25.08-13.36,32.23-5.72,4.3-12.81,5.15-18.5.46-48.01-61.26-98.57-127.8-152.91-184.95-2.44-1.99-5.64-2.25-7.32.51-11.12,18.2,6.53,58.85,22.04,74.36,3.14,2.59,6.24,1.72,5.16-2.47-1.26-4.27-3.8-7.81-5.9-11.66-3.15-5.61-6.49-11.25-6.99-17.85-.06-6.13,4.71-4.86,7.99-1.33,34.81,40.08,68.12,81.68,104.12,120.47,1.56,2.32,3.86,5.52,1.27,7.35-27.86,16.25-117.18-78.07-146.6-104.38-2-1.57-5.14-2.87-7.73-1.89-2.92,1-4.54,4.54-5.22,7.52-6.01,29.36,21.25,56.09,40.61,72.76,4.63,4.14,11.2,4.1,5.96-3.12-7.98-11.21-29.79-30.19-33.32-45.25-1.13-7.39,5.43-4.02,8.33-.59,37.06,36.94,78.34,71.1,126.22,91.35,3.83,1.99,7.38,4.56,10.06,8.03,3.05,4.12,5.71,9.69,3.91,14.72-2,5.15-9.45,3.24-13.56,2.08-45.79-11.98-89.54-33.64-127.15-62.9-7.07-6.02-14.24-6.37-11.56,5.99,8.98,42.8,51.33,65.28,91.52,70.81,6.14.63,12.74,4.15,18.75,5.23,4.63.71,2.88-3-.2-4.82-2.13-1.4-4.7-2.46-6.93-3.26-33.6-8.19-69.04-15.87-87.48-49.11-6.35-10.86.86-11.4,8.84-6.02,25.43,15.73,49.06,35.97,78.04,44.17,16.93,5.3,46.16,10.26,55.77,27.22,7.14,20.67-55.43,3.35-68.17,2.86-3.34-.6-6.96,2.15-4.59,6.25,9.71,16.49,47.68,38.27,65.68,30.72,3.53-3.65-5.57-5.65-7.92-6.17-9.03-1.96-18.2-3.97-26.43-8.21-3.4-1.44-12.75-7.88-4.91-9.83,10.6-1.08,21.35,1.72,32.03,1.43,4.89-.13,11.37-.33,17.26,3.89,3.7,2.65,6.1,6.3,7.06,7.92,2.37,3.98,3.21,7.64,3.97,10.98.42,1.83,1.01,4.87,1.26,9.09.27,4.44.83,15.5-3.79,27.46-2.16,5.58-5.88,12.52-6.14,13-2.41,4.47-4.84,8.35-4.33,8.78.29.24,1.36-.66,2.31-1.57,16.48-21.3,18.61-37.44,17.71-48.04-1.43-16.67-10.56-21.56-11.54-44.64-.91-21.52,6.43-31.44,8.1-33.57,1.41-1.8,3.08-4.54,12.07-9.83,11.53-6.79,24.92-10.8,34.17-21.19,12.24-13.21-5.78-30.5-5.57-46.34-.59-12.27,1.31-26.4,11.49-34.23,3.41-2.63,7.96-4.34,12.53-4.99,2.27-.19,3.91-.55,5.17.49.8.76-.95,2.79-2.04,3.7-3.22,2.46-9.46,8.03-12.06,17.17-2.34,8.26-.79,16.17.17,21.01.46,2.35,1.02,4.35,1.79,7.1,2.34,8.4,3.44,9.55,4.9,14.68,1.51,5.29,4.87,17.06-.45,28.03-.25.51-.44.86-.67,1.28-6.95,12.81-18.89,18.69-23.06,20.68-6.94,3.31-11.23,3.73-20.63,8.82-1.79.96-4.59,3.01-7.15,6.52-.78,1.07-2.98,4.16-3.97,8.52-1.63,7.18.99,13.48,2.16,16.28,1.73,4.16,3.98,7.02,7.21,15.53h0c10.15,23.26,6.83,54.96-4.69,71-8.41,11.72-16.41,16.47-16.41,16.47-5.33,3.16-11.44,5.21-11.14,6.72.25,1.22,4.51,1.23,5.55,1.23,12.92.01,36.28-25.73,45.81-36.73-2.61,11.23-7.33,18.85-10.46,23.1-2.06,2.8-14.74,19.7-33.19,22.72-4.41.72-9.89.9-10.07,2.49-.16,1.45,4.19,3.24,4.87,3.33,31.08,4.17,54.29-20.27,66.22-48.47,6.05-12.27,11.43-31.19,25.79-34.68,4.79-.95,9.59,1.39,13.85,3.57,27.24,14.48,57.07,20.85,87.03,26.21,3.15.65,6.13,3.63,3.24,6.61-28.8,21.29-64.68-9.54-86.38-19.95-2.86-1.7-9.76-2.25-4.63,2.35,7.46,5.13,15.52,9.25,22.64,14.92,44.17,38.64,111.46-6.92,80.72-9.69-31.68-3.78-63.08-12.99-90.6-30.33-14.83-8.2-5.52-19,6.64-21.79,11.45-2.7,23.04.63,34.18,3.41,30.44,8.62,61.95,2.91,92.95-1.04,2.28-.22,5.53.06,6.48,1.82.72,1.19.25,2.9-.75,4.39-15.55,19.59-44.03,20.78-66.9,14.32-9.54-2.73-18.93-6.67-28.96-6.72-7.29.19-6.25,3.57-.26,5.3,43.36,14.9,84.11,21.25,113.54-21.1,1.41-2.01,3.1-4.87,3.05-7.04-.04-3.18-4.13-3.18-6.5-2.65-43.65,8.02-89.45,9.18-132.05-3.82-5.94-1.07-8.63-8.15-6.49-13.74,1.51-7.53,22.41-10.9,30.01-13.21,26.43-6.34,51.8-10.71,76.6-15.56,34.85-5.97,60.86-12.24,55.07-2.69-5.61,4.96-12.14,10.2-19.64,15.38-8.02,5.53-15.68,9.98-22.62,13.55h-.02Z"/>
    <path class="st18" d="M395.11,747.75c2.49,4.37,4.97,8.73,7.46,13.11,43.7-25.87,87.41-51.72,131.11-77.59-2.83-4.2-5.64-8.4-8.47-12.61-43.36,25.7-86.73,51.4-130.1,77.1h0Z"/>
    <path class="st22" d="M518.69,348.33c-36.84-21.45-73.67-42.9-110.51-64.34-2.5,3.78-4.99,7.58-7.49,11.35,36.84,21.45,73.67,42.9,110.51,64.34,2.5-3.78,4.99-7.58,7.49-11.35h0Z"/>
  </g>
  <line class="st3" x1="752.93" y1="130.18" x2="752.93" y2="1500.38"/>
  <line class="st3" x1="754.39" y1="130.37" x2="2107.03" y2="124.81"/>
  <line class="st3" x1="753.81" y1="705.97" x2="2106.46" y2="700.41"/>
  <path class="st3" d="M61.31,1503.22l2048.41-8.42-2048.41,8.42Z"/>
  <line class="st3" x1="20.15" y1="901.05" x2="752.93" y2="898.04"/>
  <line class="st3" x1="2109.72" y1="123.37" x2="2109.72" y2="1493.57"/>
  <line class="st3" x1="1433.52" y1="126.39" x2="1433.52" y2="1496.58"/>
  <g>
    <rect class="st2" x="867.99" y="430.79" width="12.08" height="60.58"/>
    <ellipse class="st13" cx="1085.64" cy="172.7" rx="24.32" ry="27.13"/>
    <path class="st24" d="M920.95,567.66c41.18,28.15,82.36,56.31,123.55,84.46,2.43-3.78,4.86-7.58,7.3-11.35-40.95-28.22-81.9-56.42-122.85-84.63-2.66,3.83-5.33,7.68-7.99,11.51h-.01s0,0,0,0Z"/>
    <path class="st5" d="M1053.62,192.29c-2.43-3.78-4.86-7.58-7.3-11.35-38.91,23.97-77.83,47.94-116.74,71.91,2.43,3.78,4.86,7.58,7.3,11.35,38.91-23.97,77.83-47.94,116.74-71.91h0Z"/>
    <ellipse class="st28" cx="897.72" cy="529.03" rx="23.24" ry="27.13"/>
    <ellipse class="st9" cx="1080.72" cy="658.09" rx="23.96" ry="27.13"/>
    <ellipse class="st6" cx="1260.83" cy="283.32" rx="23.97" ry="27.12" transform="translate(-21.01 119.47) rotate(-5.38)"/>
    <path class="st7" d="M1274.02,452.6c-27.06,23.04,57.28-13.8,62.23-36.91,4.33-8.64,4.38-22.17-8.13-17.91-16.95,5.24-105.02,24.12-145.1,37.13-7.11,1.53-15.14,2.79-22.28,1.71-3.14-.63-4.91-1-7.47-3.59-14.81-13.68,22.56-26.47,65.91-46.1,18.42-7.79,46.01-19.09,72.27-29.57,7.09-2.76,17.87-6.6,22.22-5.3,9.34,5.51-20.79,25.95-22.89,29.28-3.72,4.45,2.13,4.74,4.98,2.94,20.91-10.68,40.79-31.25,46.5-54.85,2.15-16.21-14.68-3.76-21.49-1.62-52.23,23.45-103.57,42.08-145.1,62.06-11.94,5.21-23.78,9.49-35.67,14.97-6,2.44-13.47,6.38-18.98,4.69-10.38-3.93-13.26-19.19-9.58-29.12,3.26-9.74,9.85-13.36,19.32-13.9,4.6-.36,6.58-6.38,4.93-10.22-1.29-2.74-1.94-6.64-.78-9.66,1.24-3.34,2.98-4.82,4.59-7.53,4.36-5.81-3.66-3.15-9.64-10.05-6.87-7.21-5.36-16.67-12.07-22.58-11.96-9.32-30.66-7.54-42.12,2.7-10.09,9.71-13.38,25.45-10.99,39.25,1.09,9.12,7.19,16.47,9.31,25.24,2.33,12.21-4.14,25.08-13.36,32.23-5.72,4.3-12.81,5.15-18.5.46-48.01-61.26-98.57-127.8-152.91-184.95-2.44-1.99-5.64-2.25-7.32.51-11.12,18.2,6.53,58.85,22.04,74.36,3.14,2.59,6.24,1.72,5.16-2.47-1.26-4.27-3.8-7.81-5.9-11.66-3.15-5.61-6.49-11.25-6.99-17.85-.06-6.13,4.71-4.86,7.99-1.33,34.81,40.08,68.12,81.68,104.12,120.47,1.56,2.32,3.86,5.52,1.27,7.35-27.86,16.25-117.18-78.07-146.6-104.38-2-1.57-5.14-2.87-7.73-1.89-2.92,1-4.54,4.54-5.22,7.52-6.01,29.36,21.25,56.09,40.61,72.76,4.63,4.14,11.2,4.1,5.96-3.12-7.98-11.21-29.79-30.19-33.32-45.25-1.13-7.39,5.43-4.02,8.33-.59,37.06,36.94,78.34,71.1,126.22,91.35,3.83,1.99,7.38,4.56,10.06,8.03,3.05,4.12,5.71,9.69,3.91,14.72-2,5.15-9.45,3.24-13.56,2.08-45.79-11.98-89.54-33.64-127.15-62.9-7.07-6.02-14.24-6.37-11.56,5.99,8.98,42.8,51.33,65.28,91.52,70.81,6.14.63,12.74,4.15,18.75,5.23,4.63.71,2.88-3-.2-4.82-2.13-1.4-4.7-2.46-6.93-3.26-33.6-8.19-69.04-15.87-87.48-49.11-6.35-10.86.86-11.4,8.84-6.02,25.43,15.73,49.06,35.97,78.04,44.17,16.93,5.3,46.16,10.26,55.77,27.22,7.14,20.67-55.43,3.35-68.17,2.86-3.34-.6-6.96,2.15-4.59,6.25,9.71,16.49,47.68,38.27,65.68,30.72,3.53-3.65-5.57-5.65-7.92-6.17-9.03-1.96-18.2-3.97-26.43-8.21-3.4-1.44-12.75-7.88-4.91-9.83,10.6-1.08,21.35,1.72,32.03,1.43,4.89-.13,11.37-.33,17.26,3.89,3.7,2.65,6.1,6.3,7.06,7.92,2.37,3.98,3.21,7.64,3.97,10.98.42,1.83,1.01,4.87,1.26,9.09.27,4.44.83,15.5-3.79,27.46-2.16,5.58-5.88,12.52-6.14,13-2.41,4.47-4.84,8.35-4.33,8.78.29.24,1.36-.66,2.31-1.57,16.48-21.3,18.61-37.44,17.71-48.04-1.43-16.67-10.56-21.56-11.54-44.64-.91-21.52,6.43-31.44,8.1-33.57,1.41-1.8,3.08-4.54,12.07-9.83,11.53-6.79,24.92-10.8,34.17-21.19,12.24-13.21-5.78-30.5-5.57-46.34-.59-12.27,1.31-26.4,11.49-34.23,3.41-2.63,7.96-4.34,12.53-4.99,2.27-.19,3.91-.55,5.17.49.8.76-.95,2.79-2.04,3.7-3.22,2.46-9.46,8.03-12.06,17.17-2.34,8.26-.79,16.17.17,21.01.46,2.35,1.02,4.35,1.79,7.1,2.34,8.4,3.44,9.55,4.9,14.68,1.51,5.29,4.87,17.06-.45,28.03-.25.51-.44.86-.67,1.28-6.95,12.81-18.89,18.69-23.06,20.68-6.94,3.31-11.23,3.73-20.63,8.82-1.79.96-4.59,3.01-7.15,6.52-.78,1.07-2.98,4.16-3.97,8.52-1.63,7.18.99,13.48,2.16,16.28,1.73,4.16,3.98,7.02,7.21,15.53h0c10.15,23.26,6.83,54.96-4.69,71-8.41,11.72-16.41,16.47-16.41,16.47-5.33,3.16-11.44,5.21-11.14,6.72.25,1.22,4.51,1.23,5.55,1.23,12.92.01,36.28-25.73,45.81-36.73-2.61,11.23-7.33,18.85-10.46,23.1-2.06,2.8-14.74,19.7-33.19,22.72-4.41.72-9.89.9-10.07,2.49-.16,1.45,4.19,3.24,4.87,3.33,31.08,4.17,54.29-20.27,66.22-48.47,6.05-12.27,11.43-31.19,25.79-34.68,4.79-.95,9.59,1.39,13.85,3.57,27.24,14.48,57.07,20.85,87.03,26.21,3.15.65,6.13,3.63,3.24,6.61-28.8,21.29-64.68-9.54-86.38-19.95-2.86-1.7-9.76-2.25-4.63,2.35,7.46,5.13,15.52,9.25,22.64,14.92,44.17,38.64,111.46-6.92,80.72-9.69-31.68-3.78-63.08-12.99-90.6-30.33-14.83-8.2-5.52-19,6.64-21.79,11.45-2.7,23.04.63,34.18,3.41,30.44,8.62,61.95,2.91,92.95-1.04,2.28-.22,5.53.06,6.48,1.82.72,1.19.25,2.9-.75,4.39-15.55,19.59-44.03,20.78-66.9,14.32-9.54-2.73-18.93-6.67-28.96-6.72-7.29.19-6.25,3.57-.26,5.3,43.36,14.9,84.11,21.25,113.54-21.1,1.41-2.01,3.1-4.87,3.05-7.04-.04-3.18-4.13-3.18-6.5-2.65-43.65,8.02-89.45,9.18-132.05-3.82-5.94-1.07-8.63-8.15-6.49-13.74,1.51-7.53,22.41-10.9,30.01-13.21,26.43-6.34,51.8-10.71,76.6-15.56,34.85-5.97,60.86-12.24,55.07-2.69-5.61,4.96-12.14,10.2-19.64,15.38-8.02,5.53-15.68,9.98-22.62,13.55h-.02Z"/>
    <path class="st26" d="M1119.35,644.71c2.49,4.37,4.97,8.73,7.46,13.11,43.7-25.87,87.41-51.72,131.11-77.59-2.83-4.2-5.64-8.4-8.47-12.61-43.36,25.7-86.73,51.4-130.1,77.1h0Z"/>
    <path class="st27" d="M1242.93,245.28c-36.84-21.45-73.67-42.9-110.51-64.34-2.5,3.78-4.99,7.58-7.49,11.35,36.84,21.45,73.67,42.9,110.51,64.34,2.5-3.78,4.99-7.58,7.49-11.35h0Z"/>
  </g>
  <g>
    <rect class="st11" x="1534.86" y="1117.3" width="12.08" height="60.58"/>
    <ellipse class="st11" cx="1752.51" cy="859.21" rx="24.32" ry="27.13"/>
    <path class="st11" d="M1587.82,1254.18c41.18,28.15,82.36,56.31,123.55,84.46,2.43-3.78,4.86-7.58,7.3-11.35-40.95-28.22-81.9-56.42-122.85-84.63-2.66,3.83-5.33,7.68-7.99,11.51h-.01s0,0,0,0Z"/>
    <path class="st11" d="M1720.49,878.81c-2.43-3.78-4.86-7.58-7.3-11.35-38.91,23.97-77.83,47.94-116.74,71.91,2.43,3.78,4.86,7.58,7.3,11.35,38.91-23.97,77.83-47.94,116.74-71.91h0Z"/>
    <ellipse class="st11" cx="1564.59" cy="1215.55" rx="23.24" ry="27.13"/>
    <ellipse class="st11" cx="1747.59" cy="1344.6" rx="23.96" ry="27.13"/>
    <ellipse class="st11" cx="1927.71" cy="969.84" rx="23.97" ry="27.12" transform="translate(-82.44 185.02) rotate(-5.38)"/>
    <path class="st11" d="M1940.9,1139.12c-27.06,23.04,57.28-13.8,62.23-36.91,4.33-8.64,4.38-22.17-8.13-17.91-16.95,5.24-105.02,24.12-145.1,37.13-7.11,1.53-15.14,2.79-22.28,1.71-3.14-.63-4.91-1-7.47-3.59-14.81-13.68,22.56-26.47,65.91-46.1,18.42-7.79,46.01-19.09,72.27-29.57,7.09-2.76,17.87-6.6,22.22-5.3,9.34,5.51-20.79,25.95-22.89,29.28-3.72,4.45,2.13,4.74,4.98,2.94,20.91-10.68,40.79-31.25,46.5-54.85,2.15-16.21-14.68-3.76-21.49-1.62-52.23,23.45-103.57,42.08-145.1,62.06-11.94,5.21-23.78,9.49-35.67,14.97-6,2.44-13.47,6.38-18.98,4.69-10.38-3.93-13.26-19.19-9.58-29.12,3.26-9.74,9.85-13.36,19.32-13.9,4.6-.36,6.58-6.38,4.93-10.22-1.29-2.74-1.94-6.64-.78-9.66,1.24-3.34,2.98-4.82,4.59-7.53,4.36-5.81-3.66-3.15-9.64-10.05-6.87-7.21-5.36-16.67-12.07-22.58-11.96-9.32-30.66-7.54-42.12,2.7-10.09,9.71-13.38,25.45-10.99,39.25,1.09,9.12,7.19,16.47,9.31,25.24,2.33,12.21-4.14,25.08-13.36,32.23-5.72,4.3-12.81,5.15-18.5.46-48.01-61.26-98.57-127.8-152.91-184.95-2.44-1.99-5.64-2.25-7.32.51-11.12,18.2,6.53,58.85,22.04,74.36,3.14,2.59,6.24,1.72,5.16-2.47-1.26-4.27-3.8-7.81-5.9-11.66-3.15-5.61-6.49-11.25-6.99-17.85-.06-6.13,4.71-4.86,7.99-1.33,34.81,40.08,68.12,81.68,104.12,120.47,1.56,2.32,3.86,5.52,1.27,7.35-27.86,16.25-117.18-78.07-146.6-104.38-2-1.57-5.14-2.87-7.73-1.89-2.92,1-4.54,4.54-5.22,7.52-6.01,29.36,21.25,56.09,40.61,72.76,4.63,4.14,11.2,4.1,5.96-3.12-7.98-11.21-29.79-30.19-33.32-45.25-1.13-7.39,5.43-4.02,8.33-.59,37.06,36.94,78.34,71.1,126.22,91.35,3.83,1.99,7.38,4.56,10.06,8.03,3.05,4.12,5.71,9.69,3.91,14.72-2,5.15-9.45,3.24-13.56,2.08-45.79-11.98-89.54-33.64-127.15-62.9-7.07-6.02-14.24-6.37-11.56,5.99,8.98,42.8,51.33,65.28,91.52,70.81,6.14.63,12.74,4.15,18.75,5.23,4.63.71,2.88-3-.2-4.82-2.13-1.4-4.7-2.46-6.93-3.26-33.6-8.19-69.04-15.87-87.48-49.11-6.35-10.86.86-11.4,8.84-6.02,25.43,15.73,49.06,35.97,78.04,44.17,16.93,5.3,46.16,10.26,55.77,27.22,7.14,20.67-55.43,3.35-68.17,2.86-3.34-.6-6.96,2.15-4.59,6.25,9.71,16.49,47.68,38.27,65.68,30.72,3.53-3.65-5.57-5.65-7.92-6.17-9.03-1.96-18.2-3.97-26.43-8.21-3.4-1.44-12.75-7.88-4.91-9.83,10.6-1.08,21.35,1.72,32.03,1.43,4.89-.13,11.37-.33,17.26,3.89,3.7,2.65,6.1,6.3,7.06,7.92,2.37,3.98,3.21,7.64,3.97,10.98.42,1.83,1.01,4.87,1.26,9.09.27,4.44.83,15.5-3.79,27.46-2.16,5.58-5.88,12.52-6.14,13-2.41,4.47-4.84,8.35-4.33,8.78.29.24,1.36-.66,2.31-1.57,16.48-21.3,18.61-37.44,17.71-48.04-1.43-16.67-10.56-21.56-11.54-44.64-.91-21.52,6.43-31.44,8.1-33.57,1.41-1.8,3.08-4.54,12.07-9.83,11.53-6.79,24.92-10.8,34.17-21.19,12.24-13.21-5.78-30.5-5.57-46.34-.59-12.27,1.31-26.4,11.49-34.23,3.41-2.63,7.96-4.34,12.53-4.99,2.27-.19,3.91-.55,5.17.49.8.76-.95,2.79-2.04,3.7-3.22,2.46-9.46,8.03-12.06,17.17-2.34,8.26-.79,16.17.17,21.01.46,2.35,1.02,4.35,1.79,7.1,2.34,8.4,3.44,9.55,4.9,14.68,1.51,5.29,4.87,17.06-.45,28.03-.25.51-.44.86-.67,1.28-6.95,12.81-18.89,18.69-23.06,20.68-6.94,3.31-11.23,3.73-20.63,8.82-1.79.96-4.59,3.01-7.15,6.52-.78,1.07-2.98,4.16-3.97,8.52-1.63,7.18.99,13.48,2.16,16.28,1.73,4.16,3.98,7.02,7.21,15.53h0c10.15,23.26,6.83,54.96-4.69,71-8.41,11.72-16.41,16.47-16.41,16.47-5.33,3.16-11.44,5.21-11.14,6.72.25,1.22,4.51,1.23,5.55,1.23,12.92.01,36.28-25.73,45.81-36.73-2.61,11.23-7.33,18.85-10.46,23.1-2.06,2.8-14.74,19.7-33.19,22.72-4.41.72-9.89.9-10.07,2.49-.16,1.45,4.19,3.24,4.87,3.33,31.08,4.17,54.29-20.27,66.22-48.47,6.05-12.27,11.43-31.19,25.79-34.68,4.79-.95,9.59,1.39,13.85,3.57,27.24,14.48,57.07,20.85,87.03,26.21,3.15.65,6.13,3.63,3.24,6.61-28.8,21.29-64.68-9.54-86.38-19.95-2.86-1.7-9.76-2.25-4.63,2.35,7.46,5.13,15.52,9.25,22.64,14.92,44.17,38.64,111.46-6.92,80.72-9.69-31.68-3.78-63.08-12.99-90.6-30.33-14.83-8.2-5.52-19,6.64-21.79,11.45-2.7,23.04.63,34.18,3.41,30.44,8.62,61.95,2.91,92.95-1.04,2.28-.22,5.53.06,6.48,1.82.72,1.19.25,2.9-.75,4.39-15.55,19.59-44.03,20.78-66.9,14.32-9.54-2.73-18.93-6.67-28.96-6.72-7.29.19-6.25,3.57-.26,5.3,43.36,14.9,84.11,21.25,113.54-21.1,1.41-2.01,3.1-4.87,3.05-7.04-.04-3.18-4.13-3.18-6.5-2.65-43.65,8.02-89.45,9.18-132.05-3.82-5.94-1.07-8.63-8.15-6.49-13.74,1.51-7.53,22.41-10.9,30.01-13.21,26.43-6.34,51.8-10.71,76.6-15.56,34.85-5.97,60.86-12.24,55.07-2.69-5.61,4.96-12.14,10.2-19.64,15.38-8.02,5.53-15.68,9.98-22.62,13.55h-.02Z"/>
    <path class="st11" d="M1786.23,1331.23c2.49,4.37,4.97,8.73,7.46,13.11,43.7-25.87,87.41-51.72,131.11-77.59-2.83-4.2-5.64-8.4-8.47-12.61-43.36,25.7-86.73,51.4-130.1,77.1h0Z"/>
    <path class="st11" d="M1909.8,931.8c-36.84-21.45-73.67-42.9-110.51-64.34-2.5,3.78-4.99,7.58-7.49,11.35,36.84,21.45,73.67,42.9,110.51,64.34,2.5-3.78,4.99-7.58,7.49-11.35h0Z"/>
  </g>
  <path class="st21" d="M1297.54,1063.94c-27.06,23.04,57.28-13.8,62.23-36.91,4.33-8.64,4.38-22.17-8.13-17.91-16.95,5.24-105.02,24.12-145.1,37.13-7.11,1.53-15.14,2.79-22.28,1.71-3.14-.63-4.91-1-7.47-3.59-14.81-13.68,22.56-26.47,65.91-46.1,18.42-7.79,46.01-19.09,72.27-29.57,7.09-2.76,17.87-6.6,22.22-5.3,9.34,5.51-20.79,25.95-22.89,29.28-3.72,4.45,2.13,4.74,4.98,2.94,20.91-10.68,40.79-31.25,46.5-54.85,2.15-16.21-14.68-3.76-21.49-1.62-52.23,23.45-103.57,42.08-145.1,62.06-11.94,5.21-23.78,9.49-35.67,14.97-6,2.44-13.47,6.38-18.98,4.69-10.38-3.93-13.26-19.19-9.58-29.12,3.26-9.74,9.85-13.36,19.32-13.9,4.6-.36,6.58-6.38,4.93-10.22-1.29-2.74-1.94-6.64-.78-9.66,1.24-3.34,2.98-4.82,4.59-7.53,4.36-5.81-3.66-3.15-9.64-10.05-6.87-7.21-5.36-16.67-12.07-22.58-11.96-9.32-30.66-7.54-42.12,2.7-10.09,9.71-13.38,25.45-10.99,39.25,1.09,9.12,7.19,16.47,9.31,25.24,2.33,12.21-4.14,25.08-13.36,32.23-5.72,4.3-12.81,5.15-18.5.46-48.01-61.26-98.57-127.8-152.91-184.95-2.44-1.99-5.64-2.25-7.32.51-11.12,18.2,6.53,58.85,22.04,74.36,3.14,2.59,6.24,1.72,5.16-2.47-1.26-4.27-3.8-7.81-5.9-11.66-3.15-5.61-6.49-11.25-6.99-17.85-.06-6.13,4.71-4.86,7.99-1.33,34.81,40.08,68.12,81.68,104.12,120.47,1.56,2.32,3.86,5.52,1.27,7.35-27.86,16.25-117.18-78.07-146.6-104.38-2-1.57-5.14-2.87-7.73-1.89-2.92,1-4.54,4.54-5.22,7.52-6.01,29.36,21.25,56.09,40.61,72.76,4.63,4.14,11.2,4.1,5.96-3.12-7.98-11.21-29.79-30.19-33.32-45.25-1.13-7.39,5.43-4.02,8.33-.59,37.06,36.94,78.34,71.1,126.22,91.35,3.83,1.99,7.38,4.56,10.06,8.03,3.05,4.12,5.71,9.69,3.91,14.72-2,5.15-9.45,3.24-13.56,2.08-45.79-11.98-89.54-33.64-127.15-62.9-7.07-6.02-14.24-6.37-11.56,5.99,8.98,42.8,51.33,65.28,91.52,70.81,6.14.63,12.74,4.15,18.75,5.23,4.63.71,2.88-3-.2-4.82-2.13-1.4-4.7-2.46-6.93-3.26-33.6-8.19-69.04-15.87-87.48-49.11-6.35-10.86.86-11.4,8.84-6.02,25.43,15.73,49.06,35.97,78.04,44.17,16.93,5.3,46.16,10.26,55.77,27.22,7.14,20.67-55.43,3.35-68.17,2.86-3.34-.6-6.96,2.15-4.59,6.25,9.71,16.49,47.68,38.27,65.68,30.72,3.53-3.65-5.57-5.65-7.92-6.17-9.03-1.96-18.2-3.97-26.43-8.21-3.4-1.44-12.75-7.88-4.91-9.83,10.6-1.08,21.35,1.72,32.03,1.43,4.89-.13,11.37-.33,17.26,3.89,3.7,2.65,6.1,6.3,7.06,7.92,2.37,3.98,3.21,7.64,3.97,10.98.42,1.83,1.01,4.87,1.26,9.09.27,4.44.83,15.5-3.79,27.46-2.16,5.58-5.88,12.52-6.14,13-2.41,4.47-4.84,8.35-4.33,8.78.29.24,1.36-.66,2.31-1.57,16.48-21.3,18.61-37.44,17.71-48.04-1.43-16.67-10.56-21.56-11.54-44.64-.91-21.52,6.43-31.44,8.1-33.57,1.41-1.8,3.08-4.54,12.07-9.83,11.53-6.79,24.92-10.8,34.17-21.19,12.24-13.21-5.78-30.5-5.57-46.34-.59-12.27,1.31-26.4,11.49-34.23,3.41-2.63,7.96-4.34,12.53-4.99,2.27-.19,3.91-.55,5.17.49.8.76-.95,2.79-2.04,3.7-3.22,2.46-9.46,8.03-12.06,17.17-2.34,8.26-.79,16.17.17,21.01.46,2.35,1.02,4.35,1.79,7.1,2.34,8.4,3.44,9.55,4.9,14.68,1.51,5.29,4.87,17.06-.45,28.03-.25.51-.44.86-.67,1.28-6.95,12.81-18.89,18.69-23.06,20.68-6.94,3.31-11.23,3.73-20.63,8.82-1.79.96-4.59,3.01-7.15,6.52-.78,1.07-2.98,4.16-3.97,8.52-1.63,7.18.99,13.48,2.16,16.28,1.73,4.16,3.98,7.02,7.21,15.53h0c10.15,23.26,6.83,54.96-4.69,71-8.41,11.72-16.41,16.47-16.41,16.47-5.33,3.16-11.44,5.21-11.14,6.72.25,1.22,4.51,1.23,5.55,1.23,12.92.01,36.28-25.73,45.81-36.73-2.61,11.23-7.33,18.85-10.46,23.1-2.06,2.8-14.74,19.7-33.19,22.72-4.41.72-9.89.9-10.07,2.49-.16,1.45,4.19,3.24,4.87,3.33,31.08,4.17,54.29-20.27,66.22-48.47,6.05-12.27,11.43-31.19,25.79-34.68,4.79-.95,9.59,1.39,13.85,3.57,27.24,14.48,57.07,20.85,87.03,26.21,3.15.65,6.13,3.63,3.24,6.61-28.8,21.29-64.68-9.54-86.38-19.95-2.86-1.7-9.76-2.25-4.63,2.35,7.46,5.13,15.52,9.25,22.64,14.92,44.17,38.64,111.46-6.92,80.72-9.69-31.68-3.78-63.08-12.99-90.6-30.33-14.83-8.2-5.52-19,6.64-21.79,11.45-2.7,23.04.63,34.18,3.41,30.44,8.62,61.95,2.91,92.95-1.04,2.28-.22,5.53.06,6.48,1.82.72,1.19.25,2.9-.75,4.39-15.55,19.59-44.03,20.78-66.9,14.32-9.54-2.73-18.93-6.67-28.96-6.72-7.29.19-6.25,3.57-.26,5.3,43.36,14.9,84.11,21.25,113.54-21.1,1.41-2.01,3.1-4.87,3.05-7.04-.04-3.18-4.13-3.18-6.5-2.65-43.65,8.02-89.45,9.18-132.05-3.82-5.94-1.07-8.63-8.15-6.49-13.74,1.51-7.53,22.41-10.9,30.01-13.21,26.43-6.34,51.8-10.71,76.6-15.56,34.85-5.97,60.86-12.24,55.07-2.69-5.61,4.96-12.14,10.2-19.64,15.38-8.02,5.53-15.68,9.98-22.62,13.55h-.02Z"/>
  <text class="st16" transform="translate(804.78 1274.11)"><tspan x="0" y="0">BODY EDGE TECHNOLOGIES</tspan></text>
  <g>
    <path class="st12" d="M295.25,1217.25c-16.75,14.5,35.47-8.68,38.54-23.23,2.68-5.44,2.71-13.95-5.04-11.27-10.5,3.3-65.03,15.18-89.85,23.36-4.4.96-9.38,1.75-13.79,1.08-1.95-.4-3.04-.63-4.62-2.26-9.17-8.61,13.97-16.66,40.81-29.01,11.41-4.9,28.49-12.01,44.75-18.61,4.39-1.74,11.07-4.15,13.76-3.34,5.78,3.47-12.87,16.33-14.18,18.43-2.3,2.8,1.32,2.98,3.08,1.85,12.95-6.72,25.26-19.66,28.79-34.51,1.33-10.2-9.09-2.37-13.31-1.02-32.34,14.76-64.13,26.48-89.84,39.05-7.39,3.28-14.73,5.97-22.09,9.42-3.72,1.53-8.34,4.01-11.75,2.95-6.43-2.48-8.21-12.08-5.93-18.32,2.02-6.13,6.1-8.41,11.96-8.75,2.85-.22,4.07-4.01,3.05-6.43-.8-1.72-1.2-4.18-.48-6.08.77-2.1,1.84-3.04,2.84-4.74,2.7-3.66-2.26-1.98-5.97-6.32-4.25-4.53-3.32-10.49-7.47-14.21-7.4-5.87-18.98-4.74-26.08,1.7-6.25,6.11-8.29,16.02-6.8,24.7.68,5.74,4.45,10.37,5.76,15.88,1.44,7.68-2.56,15.78-8.27,20.28-3.54,2.71-7.93,3.24-11.46.29-29.73-38.55-61.04-80.43-94.68-116.39-1.51-1.25-3.49-1.42-4.53.32-6.89,11.45,4.04,37.03,13.65,46.79,1.95,1.63,3.86,1.08,3.2-1.55-.78-2.69-2.35-4.92-3.65-7.34-1.95-3.53-4.02-7.08-4.33-11.23-.03-3.86,2.91-3.06,4.95-.84,21.55,25.22,42.18,51.4,64.47,75.82.97,1.46,2.39,3.47.79,4.63-17.25,10.23-72.56-49.13-90.78-65.69-1.24-.99-3.19-1.81-4.78-1.19-1.81.63-2.81,2.85-3.23,4.73-3.72,18.47,13.16,35.3,25.14,45.79,2.87,2.6,6.94,2.58,3.69-1.96-4.94-7.05-18.45-19-20.63-28.47-.7-4.65,3.36-2.53,5.16-.37,22.95,23.25,48.51,44.75,78.16,57.49,2.37,1.25,4.57,2.87,6.23,5.06,1.89,2.59,3.53,6.1,2.42,9.26-1.24,3.24-5.85,2.04-8.39,1.31-28.35-7.54-55.44-21.17-78.73-39.58-4.38-3.79-8.82-4.01-7.16,3.77,5.56,26.93,31.78,41.08,56.67,44.56,3.8.4,7.89,2.61,11.61,3.29,2.87.45,1.78-1.88-.12-3.04-1.32-.88-2.91-1.55-4.29-2.05-20.81-5.15-42.75-9.99-54.17-30.91-3.93-6.83.53-7.18,5.48-3.79,15.74,9.9,30.38,22.64,48.32,27.8,10.48,3.34,28.58,6.45,34.53,17.13,4.42,13.01-34.32,2.11-42.21,1.8-2.07-.37-4.31,1.35-2.84,3.93,6.01,10.38,29.53,24.08,40.67,19.33,2.18-2.29-3.45-3.55-4.9-3.88-5.59-1.23-11.27-2.5-16.36-5.17-2.11-.91-7.9-4.96-3.04-6.19,6.56-.68,13.22,1.08,19.83.9,3.03-.08,7.04-.21,10.69,2.45,2.29,1.67,3.78,3.97,4.37,4.98,1.47,2.5,1.99,4.81,2.46,6.91.26,1.15.62,3.06.78,5.72.17,2.8.51,9.76-2.35,17.28-1.34,3.51-3.64,7.88-3.8,8.18-1.49,2.81-3,5.25-2.68,5.53.18.15.84-.42,1.43-.99,10.2-13.4,11.53-23.56,10.96-30.23-.89-10.49-6.54-13.57-7.15-28.1-.57-13.54,3.98-19.78,5.02-21.13.87-1.14,1.91-2.86,7.47-6.19,7.14-4.27,15.43-6.8,21.16-13.34,7.58-8.32-3.58-19.19-3.45-29.16-.37-7.72.81-16.62,7.11-21.54,2.11-1.66,4.93-2.73,7.76-3.14,1.4-.12,2.42-.35,3.2.31.5.48-.59,1.76-1.26,2.33-1.99,1.55-5.86,5.05-7.47,10.8-1.45,5.2-.49,10.17.1,13.22.29,1.48.63,2.74,1.11,4.47,1.45,5.28,2.13,6.01,3.03,9.24.93,3.33,3.01,10.73-.28,17.64-.15.32-.27.54-.41.81-4.3,8.06-11.7,11.76-14.28,13.01-4.3,2.08-6.95,2.35-12.77,5.55-1.11.61-2.84,1.89-4.43,4.1-.48.67-1.85,2.62-2.46,5.36-1.01,4.52.62,8.49,1.34,10.25,1.07,2.62,2.46,4.42,4.47,9.77h0c6.29,14.64,4.23,34.59-2.9,44.68-5.21,7.37-10.16,10.37-10.16,10.37-3.3,1.99-7.09,3.28-6.9,4.23.15.77,2.79.77,3.44.77,8,0,22.47-16.19,28.37-23.11-1.61,7.07-4.54,11.86-6.48,14.54-1.28,1.76-9.13,12.4-20.55,14.3-2.73.45-6.13.57-6.23,1.57-.1.91,2.59,2.04,3.01,2.1,19.25,2.62,33.62-12.76,41.01-30.5,3.75-7.72,7.08-19.63,15.97-21.83,2.96-.6,5.94.88,8.58,2.24,16.87,9.11,35.34,13.12,53.89,16.49,1.95.41,3.8,2.28,2.01,4.16-17.83,13.39-40.05-6.01-53.49-12.56-1.77-1.07-6.05-1.42-2.87,1.48,4.62,3.23,9.61,5.82,14.02,9.39,27.35,24.31,69.02-4.35,49.98-6.1-19.62-2.38-39.06-8.17-56.1-19.08-9.18-5.16-3.42-11.96,4.11-13.71,7.09-1.7,14.27.39,21.16,2.15,18.85,5.43,38.36,1.83,57.55-.65,1.41-.14,3.42.04,4.01,1.15.45.75.15,1.83-.46,2.76-9.63,12.33-27.27,13.08-41.43,9.01-5.91-1.72-11.72-4.2-17.93-4.23-4.52.12-3.87,2.25-.16,3.34,26.85,9.38,52.08,13.37,70.31-13.28.87-1.27,1.92-3.07,1.89-4.43-.03-2-2.55-2-4.03-1.67-27.03,5.05-55.39,5.78-81.77-2.41-3.68-.67-5.34-5.13-4.02-8.65.94-4.74,13.87-6.86,18.58-8.32,16.36-3.99,32.08-6.74,47.43-9.79,21.58-3.75,37.68-7.7,34.1-1.7-3.47,3.12-7.52,6.42-12.16,9.68-4.97,3.48-9.71,6.28-14.01,8.53h-.01Z"/>
    <line class="st4" x1="371.6" y1="1081.94" x2="371.6" y2="1316.81"/>
    <text class="st16" transform="translate(395.11 1171.06)"><tspan class="st12" x="0" y="0">B</tspan><tspan x="29.02" y="0">ODY </tspan><tspan class="st12" x="0" y="43.2">E</tspan><tspan x="27.35" y="43.2">DGE </tspan><tspan class="st12" x="0" y="86.4">T</tspan><tspan x="24.28" y="86.4">ECHNOLOGIES</tspan></text>
  </g>
  <g>
    <text class="st1" transform="translate(1717.88 543.34) scale(.73 1)"><tspan x="0" y="0">BET</tspan></text>
    <path class="st0" d="M1735.76,415.27c0-1,.05-1.99.13-2.97-.76-.04-1.49-.16-2.19-.38-9.9-3.94-12.65-19.24-9.13-29.19,3.11-9.77,9.4-13.39,18.43-13.93,4.39-.36,6.27-6.39,4.7-10.24-1.23-2.74-1.85-6.65-.75-9.68,1.19-3.35,2.84-4.84,4.38-7.55,4.16-5.82-3.49-3.15-9.19-10.07-6.55-7.22-5.11-16.71-11.51-22.63-11.4-9.35-29.24-7.56-40.17,2.71-9.63,9.73-12.76,25.51-10.48,39.34,1.04,9.14,6.86,16.51,8.88,25.3,2.22,12.23-3.95,25.14-12.74,32.3-5.45,4.31-12.21,5.16-17.65.46-45.79-61.41-94.02-128.11-145.84-185.39-2.32-1.99-5.38-2.25-6.98.52-10.61,18.24,6.22,58.99,21.03,74.53,3,2.6,5.95,1.72,4.92-2.47-1.2-4.28-3.62-7.83-5.63-11.69-3-5.63-6.19-11.27-6.66-17.89-.05-6.14,4.49-4.87,7.62-1.33,33.2,40.18,64.97,81.87,99.31,120.76,1.49,2.33,3.68,5.53,1.21,7.37-26.58,16.29-111.76-78.25-139.82-104.62-1.91-1.58-4.91-2.88-7.37-1.9-2.78,1-4.33,4.55-4.98,7.54-5.73,29.42,20.27,56.22,38.73,72.93,4.42,4.15,10.68,4.11,5.68-3.13-7.61-11.24-28.41-30.26-31.78-45.35-1.07-7.4,5.17-4.03,7.94-.59,35.35,37.03,74.71,71.27,120.38,91.57,3.65,2,7.03,4.57,9.6,8.05,2.91,4.13,5.44,9.71,3.73,14.75-1.91,5.16-9.01,3.25-12.93,2.09-43.67-12.01-85.4-33.71-121.27-63.05-6.74-6.04-13.58-6.39-11.02,6,8.57,42.9,48.95,65.44,87.29,70.98,5.85.63,12.15,4.16,17.88,5.24,4.42.71,2.74-3-.19-4.84-2.03-1.4-4.48-2.46-6.61-3.27-32.05-8.21-65.85-15.91-83.43-49.23-6.06-10.88.82-11.43,8.44-6.04,24.25,15.77,46.79,36.06,74.43,44.27,16.15,5.31,44.02,10.28,53.19,27.28,6.81,20.72-52.87,3.35-65.02,2.86-3.19-.6-6.64,2.15-4.38,6.26,9.26,16.53,45.48,38.36,62.65,30.79,3.36-3.66-5.31-5.66-7.55-6.18-8.61-1.97-17.36-3.98-25.2-8.23-3.24-1.44-12.16-7.9-4.68-9.85,10.11-1.09,20.36,1.72,30.55,1.44,4.66-.13,10.84-.33,16.46,3.9,3.53,2.66,5.82,6.32,6.74,7.94,2.26,3.99,3.06,7.66,3.79,11.01.4,1.83.96,4.88,1.2,9.11.26,4.45.79,15.54-3.61,27.52-2.06,5.6-5.61,12.55-5.85,13.03-2.3,4.48-4.62,8.37-4.13,8.81.27.24,1.29-.67,2.21-1.57,15.71-21.35,17.75-37.53,16.89-48.15-1.36-16.71-10.07-21.61-11.01-44.75-.87-21.57,6.13-31.51,7.73-33.65,1.35-1.81,2.94-4.55,11.51-9.85,10.99-6.8,23.77-10.83,32.59-21.24,11.67-13.25-5.51-30.57-5.31-46.45-.57-12.3,1.25-26.47,10.96-34.31,3.25-2.64,7.59-4.35,11.95-5.01,2.16-.19,3.73-.55,4.93.5.76.76-.91,2.8-1.94,3.71-3.07,2.46-9.03,8.05-11.5,17.21-2.24,8.28-.75,16.2.16,21.06.44,2.36.97,4.36,1.7,7.12,2.23,8.42,3.28,9.57,4.67,14.72,1.44,5.3,4.64,17.1-.43,28.09-.24.52-.42.86-.64,1.29-6.63,12.84-18.02,18.74-21.99,20.73-6.62,3.32-10.71,3.74-19.67,8.84-1.7.97-4.38,3.01-6.82,6.54-.75,1.07-2.84,4.17-3.79,8.54-1.56,7.2.95,13.52,2.06,16.32,1.65,4.17,3.79,7.03,6.88,15.56,9.68,23.31,6.51,55.09-4.47,71.17-8.02,11.74-15.65,16.51-15.65,16.51-5.09,3.17-10.92,5.22-10.62,6.74.24,1.22,4.3,1.23,5.29,1.23,12.32.01,34.61-25.79,43.7-36.82-2.49,11.26-6.99,18.9-9.98,23.16-1.97,2.81-14.06,19.75-31.65,22.77-4.2.72-9.44.9-9.6,2.49-.16,1.45,3.99,3.25,4.64,3.34,29.65,4.18,51.78-20.32,63.16-48.58,5.77-12.3,10.9-31.26,24.6-34.76,2.43-.51,4.87-.07,7.23.77.39-4.07.81-8.14,1.29-12.2-.6-28.67.38-57.35.41-86.02Z"/>
  </g>
</svg>