<?xml version="1.0" encoding="UTF-8"?>
<svg id="Capa_1" data-name="Capa 1" xmlns="http://www.w3.org/2000/svg" viewBox="0 0 982.8 353.04">
  <defs>
    <style>
      .cls-1 {
        letter-spacing: 0em;
      }

      .cls-2 {
        letter-spacing: -.03em;
      }

      .cls-3 {
        fill: #0a3265;
      }

      .cls-4 {
        fill: #16a8e7;
      }

      .cls-5 {
        fill: #3370b7;
        font-family: Dubai-Medium, Dubai;
        font-size: 29px;
        font-weight: 500;
      }

      .cls-6 {
        letter-spacing: -.04em;
      }

      .cls-7 {
        letter-spacing: 0em;
      }

      .cls-8 {
        fill: #fdfdfd;
      }
    </style>
  </defs>
  <g>
    <path class="cls-3" d="M334.62,134.07c-1.78-8.52-9.32-14.46-17.48-15.5-4.31-.6-8.44-.87-9.87-5.94-1.05-3.1-1.68-6.76-3.55-9.53-4.43-6.8-13.57-7.46-16.48-15.92-2.28-5.79-1.92-13.19-.49-19.28,5.15-24.13,30.7-33.99,50.13-21.89,4.16,2.5,8.09,5.8,12.7,7.19,5.79,1.83,12.77.56,18.87.94,36.71.2,52.32,55.31,28.5,80.56-1.57,2.14-2.36,4.05-1.84,5.92.48,1.9,2.32,3.8,4.55,5.91,17.83,16.04,21.05,45.73,7.6,66.54-17.61,28.26-52.8,20.99-80.3,21.13-6.21.15-9.47-.42-10.25-7.69-.57-4.8-1-11.04-1.36-15.29-.1-1.59-.25-3.48.05-4.91.43-1.94,1.93-2.08,5.02-2.11,1.59-.02,3.16,0,4.8,0,9.52,0,24.87,0,34.84,0,4.36-.07,8.53.29,11.3-.89,6.29-2.71,12.52-8.64,14.41-15.76,2.31-8.73-1.13-20.02-7.51-25.82-7.82-6.79-18.62-5.12-28.15-5.29-5.68-.09-11.68.07-13.77-5.76-1.55-4.5-.32-11.26-1.7-16.44l-.04-.15ZM343.29,65.85c.53-7.27-4.4-12.91-10.42-16.11-15.2-8.07-35.92.43-41.36,20-1.23,4.61-2.03,10.1-.27,14.52,1.17,2.88,3.36,4.26,6.3,6.27,4.16,2.75,8.02,6.35,10.6,10.77,2.15,3.51,3.25,7.39,6.58,9.85,2.73,2.05,6.49,2.98,9.76,4.56,4.71,2.13,8.97,5.6,11.64,10.22,3.54,5.86,4.21,12.72,5,17.34.36,3.88,3.23,6.58,7.15,6.14,6.19-.45,9.81-7.83,8.47-13.78-.73-3.68-3.59-6.32-7.03-10-2.9-3.1-5.73-6.38-7.91-10.1-3.15-5.18-4.91-11.62-5.01-17.13-.42-11.67,5.52-21.14,6.5-32.43v-.15ZM358.72,92.27c.03,1.05.22,1.78.53,2.69.39,1.22,1.33,2.64,1.09,3.78-.11.49-.51.84-1.05,1.18-1.32.79-3.37,1.75-3.78,3.14-.58,2.45,2.34,3.64,4.07,4.53,1.68.74,3.35,1.83,4.62,2.99,1.32,1.21,2.92,2.48,4.59,1.37,1.53-.87,3.92-3.4,5.07-6.16,2.26-5.79,2.3-13.17-.45-18.72-1.71-3.54-4.29-5.16-7.45-3.93-3.76,1.36-7.21,5.26-7.24,9.01v.13Z"/>
    <path class="cls-3" d="M521.82,82.76c2.52-2.98,5.65-10.14,6.99-14.27,1.08-2.89,1.78-6.41,2.21-8.87.43-2.43.72-3.69,1.24-4.15,10.16-1.09,103.63-.2,116.95-.6,1.97-.13,1.92,2.3,2.05,4.16.41,9.24-4.1,19.91-11.62,23.99-3.47,2.01-7.24,2.3-11.1,2.21-6.48.02-18.75-.02-24.65,0-2.87.02-2.62.21-2.65,1.55,0,1.16,0,2.24,0,3.46.01,31.66,0,116.95,0,141.68.15,1.18-.85,2.03-1.92,2.37-3.3,1.36-9.37.46-12.78-1.89-12.13-7.47-14.09-24.16-14.38-37.63-.36-11.12.21-22.35.5-33.46.4-23.53-.01-47.16.11-70.67-.13-2.27.33-4.85-1-6.29-.58-.5-1.55-.55-2.39-.56-9.05-.02-38.89.02-46.02-.02-.76-.07-1.56-.02-1.54-.94v-.06Z"/>
    <path class="cls-3" d="M516.2,131.85c.88,4.71-.94,10.65-3.32,15.58-6.89,12.49-20.94,11.37-34.48,11.42-6.58.01-13.14-.25-17.55,2.7-6.04,4.24-7.32,12.61-7.61,19.78-.27,9.32,2.79,20.42,12.27,22.49,22.61,4.18,58.83-9.53,61.35,19.47.98,11.3,2.92,9.98-13.04,10.66-3.04.13-6.06.26-9.11.46-17.67,1.03-36.63,3.95-53.6-2.25-6.64-2.49-12.59-6.89-16.81-12.8-13.94-20.49-10.81-59.26,2.74-76.97,4.37-5.24,10.55-9.34,16.5-12.05,2.92-1.21,5.14-1.27,8.99-1.27,11.9,0,26.87,0,38.95,0,1.63,0,3.21,0,4.78,0,5.28.21,8.62-.8,9.91,2.69l.03.09Z"/>
    <path class="cls-4" d="M523.14,56.39c.5,49.2-50.6,16.51-68.43,33.95-7.57,9.28,2.27,33.61-5.75,37.38-6.96,3.27-12.96,7.27-17.29,12.8-1.84,2.35-4.74,11.02-6.04,5.44-6.69-95.96,11.55-94.6,97.51-89.57Z"/>
    <path class="cls-3" d="M308.6,149.33c-.61-.42-1.73-4.46-3.83-2.87-.21.16-.35,3.84-2.56,5.05-6.65,3.65-15.17-2.35-15.98-2.16-1.51.35-4.26,7.43-4.52,9.46-1.1,8.9,7.68,21.78,9.85,31.97s2.01,19.87,3.05,29.7c.35,3.26,4.41,12.49.5,13.82-2.35.8-3.17-.28-4.19-2.47-3.33-7.16-3.46-30.35-6.06-40.74-3.94-15.75-14.02-19.36-7.67-38.85,1.71-5.26,4.53-10.67,10.22-10.26,4.42.31,7.03,6.43,11.32,3.14,3.84-2.94,1.26-15.17,10.25-20.56,9.89-5.94,21.71,1.32,22.77,13.89.35,4.2.42,12.48-1.03,16.27-2.86,7.51-14.97,4.35-16.77,14.4-1.04,5.81,2.63,9.41,2.11,13.73-.56,4.68-6.03,10.61-6.23,17.66-.26,9.32,6.53,21.67,3.91,32.38-1.71.02-3.43-.01-5.14,0,1.67-11.31-3.27-24.48-2.61-35.26.32-5.15,3.47-10,3.84-14.62.43-5.33-2.02-9.34-.95-15.33,1.9-10.61,12.79-9.34-.29-18.35ZM325.12,153.45c.93-.64,2.84-8.57,2.85-10.6.1-16.93-20.45-16.47-20.63-7.25-.08,4.35,13.62,20.71,17.78,17.84Z"/>
    <path class="cls-4" d="M308.6,232.88c-2.39,0-6.59.93-7.53-2.36-1.17-19.5-4.97-39.05-1.1-58.46,1.81-9.05,6.1-14.51,8.63-22.73,13.07,9.01,2.18,7.73.29,18.35-1.07,5.99,1.38,9.99.95,15.33-.37,4.62-3.53,9.47-3.84,14.62-.66,10.78,4.28,23.94,2.61,35.26Z"/>
    <path class="cls-4" d="M343.17,67.47c-.04.63.09,1.26.04,1.89-1.15,16.34-12.21,22.57-2.58,43.05,4.08,8.5,11.12,15.45,14.94,19.89,3.09,3.71,1.27,9.87-.88,13.78-2.28,4.68-9.87,5.16-12.56.1-5.21-9.81-1.86-28.04-18.52-34.31-.55-.21-1.1-.44-1.61-.73-2.58-1.47-4.56-2.36-6.65-5-5.32-6.73-7.07-13.77-14.81-20.18-1.56-1.3-3.12-4.44-4.45-7.5-14.98-34.4,49.52-45.77,47.09-10.98Z"/>
    <path class="cls-8" d="M346.1,80.59c12.77-5.65,39.56.82,38.17,25.26,0,0,0,0,0,.01-6.75,37.37-47.91,20.68-38.22-25.21,0-.02.02-.05.04-.06Z"/>
    <path class="cls-8" d="M325.12,153.45c-4.16,2.86-17.86-13.5-17.78-17.84.18-9.23,20.73-9.68,20.63,7.25-.01,2.03-1.92,9.96-2.85,10.6Z"/>
  </g>
  <text class="cls-5" transform="translate(285 268.27)"><tspan x="0" y="0">BO</tspan><tspan class="cls-6" x="38.11" y="0">D</tspan><tspan x="56.2" y="0">Y </tspan><tspan class="cls-1" x="80.79" y="0">E</tspan><tspan x="96.66" y="0">DGE</tspan><tspan class="cls-7" x="150.59" y="0"> </tspan><tspan x="157.38" y="0">TECHNO</tspan><tspan class="cls-2" x="268.36" y="0">L</tspan><tspan x="282.4" y="0">OGIES</tspan></text>
</svg>